<?xml version="1.0" encoding="UTF-8" standalone="no"?>
<!-- Created with Inkscape (http://www.inkscape.org/) -->

<svg
   xmlns:dc="http://purl.org/dc/elements/1.1/"
   xmlns:cc="http://creativecommons.org/ns#"
   xmlns:rdf="http://www.w3.org/1999/02/22-rdf-syntax-ns#"
   xmlns:svg="http://www.w3.org/2000/svg"
   xmlns="http://www.w3.org/2000/svg"
   xmlns:sodipodi="http://sodipodi.sourceforge.net/DTD/sodipodi-0.dtd"
   xmlns:inkscape="http://www.inkscape.org/namespaces/inkscape"
   width="50mm"
   height="25mm"
   viewBox="0 0 50 25"
   version="1.1"
   id="svg8"
   inkscape:version="0.92.4 (5da689c313, 2019-01-14)"
   sodipodi:docname="fordlogo_frompng-scaled.svg">
  <defs
     id="defs2" />
  <sodipodi:namedview
     id="base"
     pagecolor="#ffffff"
     bordercolor="#666666"
     borderopacity="1.0"
     inkscape:pageopacity="0.0"
     inkscape:pageshadow="2"
     inkscape:zoom="2.8469167"
     inkscape:cx="94.488189"
     inkscape:cy="80.437901"
     inkscape:document-units="mm"
     inkscape:current-layer="layer1"
     showgrid="false"
     inkscape:window-width="1366"
     inkscape:window-height="705"
     inkscape:window-x="-8"
     inkscape:window-y="-8"
     inkscape:window-maximized="1" />
  <metadata
     id="metadata5">
    <rdf:RDF>
      <cc:Work
         rdf:about="">
        <dc:format>image/svg+xml</dc:format>
        <dc:type
           rdf:resource="http://purl.org/dc/dcmitype/StillImage" />
        <dc:title></dc:title>
      </cc:Work>
    </rdf:RDF>
  </metadata>
  <g
     inkscape:label="Layer 1"
     inkscape:groupmode="layer"
     id="layer1"
     transform="translate(0,-272)">
    <path
       style="fill:#000000;stroke-width:0.01202273"
       d="m 20.010585,296.99422 c -2.72547,-0.0618 -5.260095,-0.29189 -7.6224,-0.69218 -4.4435082,-0.75294 -8.0351786,-2.05251 -10.2193091,-3.69765 -1.073082,-0.80827 -1.78084353,-1.7151 -2.03938953,-2.61298 -0.037125,-0.129 -0.056415,-0.21842 -0.11421,-0.52973 -0.00975,-0.0528 -0.0154949969,-0.18033 -0.015269996865,-0.34264 C 3.0787314e-4,288.89341 0.00450637,288.83609 0.03320137,288.66818 c 0.05172,-0.30282 0.103665,-0.49084 0.2059335,-0.74541 0.3891375,-0.96864 1.21936803,-1.86933 2.50267653,-2.71507 2.4313125,-1.60235 6.2561535,-2.82261 10.8786986,-3.47072 1.534785,-0.21519 2.95431,-0.34443 4.82112,-0.43896 1.222815,-0.062 3.094365,-0.0813 4.06368,-0.042 0.1587,0.006 0.44814,0.0174 0.643215,0.0245 4.342515,0.15629 8.526825,0.84606 11.84838,1.95318 3.546375,1.18208 5.926275,2.77196 6.74382,4.50518 0.26724,0.56656 0.383205,1.22166 0.30603,1.72885 -0.0801,0.52688 -0.22287,0.92595 -0.49218,1.37637 -0.93171,1.55823 -3.12459,2.97632 -6.299175,4.07352 -3.32352,1.14867 -7.678995,1.88256 -12.106875,2.04 -0.20169,0.008 -0.49113,0.0183 -0.643215,0.0248 -0.37326,0.0159 -1.9806,0.0236 -2.494725,0.012 z m 2.404545,-0.68586 c 5.57112,-0.12945 10.763475,-1.09524 14.314635,-2.66271 0.32808,-0.14475 0.99189,-0.47265 1.254795,-0.6197 0.84309,-0.4716 1.46724,-0.91999 1.98228,-1.42411 0.722775,-0.70743 1.11057,-1.39686 1.209195,-2.14979 0.07005,-0.53481 -0.03645,-1.10154 -0.30654,-1.63147 -0.290955,-0.57083 -0.77817,-1.12901 -1.454235,-1.66601 -1.07445,-0.85347 -2.669445,-1.64802 -4.605675,-2.29437 -3.03168,-1.01202 -6.77475,-1.65574 -10.873575,-1.87002 -1.598145,-0.0836 -3.48573,-0.0948 -5.121675,-0.0303 -4.32405,0.17021 -8.330353,0.82644 -11.5177692,1.88663 -3.4565399,1.14969 -5.6605514,2.67714 -6.2636429,4.34089 -0.18436203,0.50861 -0.21667803,1.03136 -0.09606,1.55376 0.03048,0.132 0.11478,0.37625 0.181008,0.52443 0.593496,1.32795 2.216289,2.56526 4.705905,3.58803 2.1266834,0.87369 4.8608311,1.56194 7.8628691,1.97928 2.800155,0.38928 5.681805,0.54626 8.728485,0.47549 z m -1.899585,-0.59705 c -3.77799,-0.0284 -7.557315,-0.45481 -10.6858931,-1.20592 -2.8247296,-0.67815 -5.1096525,-1.61484 -6.5142945,-2.6705 -0.959637,-0.7212 -1.5139305,-1.46754 -1.683636,-2.26696 -0.03021,-0.14235 -0.032805,-0.17631 -0.033345,-0.43688 -6.375e-4,-0.31005 0.0102,-0.39895 0.078405,-0.64071 0.434145,-1.53976 2.4615615,-2.97625 5.7400109,-4.06699 0.7079026,-0.23552 1.2929941,-0.40545 2.0679046,-0.60063 4.3940681,-1.10675 9.9459281,-1.52798 15.3590231,-1.16532 4.276275,0.28648 8.19585,1.07362 11.04288,2.21764 2.78208,1.11794 4.37811,2.49801 4.56849,3.95036 0.09555,0.72838 -0.161475,1.44957 -0.766485,2.15115 -1.097265,1.27242 -3.38283,2.43129 -6.453015,3.27195 -2.982,0.81651 -6.496935,1.30476 -10.33353,1.43539 -0.34629,0.012 -1.951785,0.0376 -2.01381,0.0325 -0.0165,-10e-4 -0.184245,-0.003 -0.372705,-0.004 z m 9.38409,-2.07742 c 0.40032,-0.065 0.853815,-0.29202 1.310205,-0.6561 0.424875,-0.33894 0.932085,-0.84774 1.3935,-1.3979 0.10185,-0.1215 0.13935,-0.17479 0.13935,-0.19837 0,-0.0335 -0.0882,-0.126 -0.24408,-0.25647 -0.11835,-0.0988 -0.0741,-0.1287 -0.6327,0.42628 -0.59658,0.5927 -0.79503,0.77001 -1.118985,0.99975 -0.304545,0.21599 -0.57519,0.27596 -0.73218,0.16224 -0.12855,-0.0931 -0.13035,-0.24841 -0.006,-0.49647 0.164685,-0.32746 0.91371,-1.52137 2.313075,-3.68694 0.960045,-1.48567 1.08171,-1.67731 1.08171,-1.70382 0,-0.015 -0.012,-0.0351 -0.02865,-0.0456 -0.0252,-0.0165 -0.09915,-0.0183 -0.60468,-0.0153 -0.508935,0.003 -0.579555,0.006 -0.606015,0.0231 -0.0165,0.0105 -0.0834,0.10545 -0.1488,0.21039 -0.15888,0.25487 -1.5723,2.4156 -1.78419,2.72756 -0.03615,0.0532 -0.07785,0.0681 -0.09495,0.0337 -0.006,-0.012 -0.0177,-0.0541 -0.02595,-0.0939 -0.05955,-0.28643 -0.34098,-0.55907 -0.69222,-0.67077 -0.18186,-0.0577 -0.21774,-0.0627 -0.468885,-0.0627 -0.20739,0 -0.257505,0.005 -0.364425,0.0278 -0.373425,0.0837 -0.72774,0.25956 -1.131765,0.56194 -0.211845,0.15855 -0.38367,0.30381 -0.746055,0.63075 -0.48654,0.43895 -0.71136,0.62219 -0.99153,0.80819 -0.33807,0.22441 -0.64746,0.32625 -0.875055,0.28798 -0.54765,-0.0921 -0.642885,-0.81108 -0.18204,-1.37436 0.0738,-0.0903 0.10065,-0.1107 0.13005,-0.0993 0.02265,0.009 0.02235,0.006 0.0195,0.14895 -0.0045,0.19629 0.04095,0.31838 0.16161,0.43895 0.1203,0.12015 0.25275,0.17421 0.426975,0.17421 0.34956,0 0.661605,-0.26349 0.77487,-0.65432 0.0642,-0.22167 0.05055,-0.41158 -0.04395,-0.60781 -0.066,-0.1371 -0.223365,-0.2972 -0.358275,-0.3644 -0.1491,-0.0743 -0.263775,-0.0968 -0.45627,-0.0896 -0.185205,0.007 -0.33138,0.0393 -0.49191,0.1089 -0.286485,0.1242 -0.60681,0.38585 -0.807285,0.65952 -0.0783,0.10695 -0.10275,0.12825 -0.12315,0.1077 -0.0075,-0.007 -0.0171,-0.0928 -0.0222,-0.1906 -0.0153,-0.29225 -0.081,-0.47028 -0.22722,-0.61671 -0.13575,-0.1359 -0.28857,-0.19179 -0.52494,-0.19211 -0.21099,-2.7e-4 -0.39687,0.0444 -0.623235,0.1497 -0.36642,0.17048 -0.668955,0.42729 -1.235355,1.04867 -0.152145,0.16689 -0.275385,0.29229 -0.287295,0.29229 -0.03225,0 -0.03645,-0.0156 -0.0483,-0.17858 -0.0213,-0.29251 -0.09135,-0.56424 -0.20526,-0.79525 -0.0924,-0.18741 -0.18165,-0.26451 -0.306195,-0.26451 -0.0762,0 -0.43428,0.19984 -0.50748,0.2832 -0.06525,0.0743 -0.0678,0.11355 -0.0201,0.31492 0.05985,0.25275 0.081,0.42842 0.0813,0.67529 9.45e-4,0.70261 -0.234885,1.326 -0.67521,1.78491 -0.36462,0.37999 -0.826905,0.56733 -1.189245,0.48192 -0.19983,-0.0471 -0.369465,-0.18669 -0.462495,-0.38057 -0.0735,-0.15313 -0.0951,-0.25587 -0.09465,-0.44854 6.3e-4,-0.25476 0.05895,-0.4887 0.18966,-0.76152 0.28344,-0.59135 0.80367,-1.04786 1.575045,-1.38209 0.27888,-0.1209 0.269925,-0.1068 0.199545,-0.31224 -0.0717,-0.20944 -0.0942,-0.24588 -0.17658,-0.28617 -0.0648,-0.0317 -0.0711,-0.0324 -0.21342,-0.0255 -0.31701,0.0156 -0.688095,0.1272 -1.08927,0.32786 -0.5625,0.28132 -1.005135,0.70615 -1.37844,1.32301 -0.1065,0.17607 -0.271935,0.51036 -0.36507,0.7379 -0.194445,0.47506 -0.32871,0.65347 -0.81849,1.08775 -0.20028,0.17757 -0.22239,0.20529 -0.212475,0.26637 0.012,0.0761 0.222945,0.36363 0.285195,0.38942 0.0186,0.007 0.05025,0.0105 0.07005,0.006 0.0831,-0.0183 0.407685,-0.28157 0.636105,-0.51599 0.0813,-0.0834 0.155505,-0.15159 0.16503,-0.15159 0.02535,0 0.0498,0.0435 0.08835,0.15734 0.1077,0.31795 0.315525,0.59187 0.585255,0.77131 0.184965,0.12315 0.38277,0.20129 0.619425,0.24494 0.13815,0.0255 0.45606,0.0288 0.588315,0.006 0.655395,-0.1122 1.23723,-0.48767 1.80714,-1.1661 0.1368,-0.16289 0.19788,-0.24336 0.37479,-0.49415 0.182865,-0.25921 0.54708,-0.72628 0.805635,-1.03311 0.300705,-0.35683 0.70986,-0.74898 0.975375,-0.93478 0.1206,-0.0845 0.31497,-0.17886 0.40485,-0.19673 0.23769,-0.0472 0.340305,0.12915 0.23793,0.40887 -0.0552,0.15083 -0.31182,0.6059 -0.70176,1.24436 -0.1986,0.32517 -0.26787,0.43555 -0.69411,1.10608 -0.48339,0.76043 -0.563775,0.89438 -0.564585,0.94077 -1.5e-4,0.009 0.0105,0.0258 0.02385,0.039 0.0234,0.0234 0.04005,0.024 0.565665,0.024 0.452355,0 0.547245,-0.003 0.5757,-0.0177 0.0219,-0.012 0.0708,-0.0748 0.13665,-0.17733 0.0564,-0.0879 0.30471,-0.4762 0.551835,-0.86304 0.703545,-1.10133 0.90378,-1.40631 0.9234,-1.40649 0.0135,-1.2e-4 0.0228,0.0341 0.0393,0.15215 0.03885,0.27771 0.11925,0.4593 0.276405,0.62482 0.22635,0.23829 0.522975,0.3315 0.89172,0.28022 0.23826,-0.0332 0.61095,-0.18362 0.87081,-0.3516 0.16158,-0.1044 0.16641,-0.0981 0.13635,0.177 -0.0522,0.4761 0.05715,0.9186 0.303885,1.23022 0.14895,0.18821 0.38895,0.34164 0.637545,0.40769 0.1041,0.0276 0.14535,0.0321 0.30657,0.033 0.20928,0.001 0.288705,-0.0105 0.486915,-0.074 0.323325,-0.1029 0.66861,-0.3129 0.97257,-0.59145 0.0588,-0.0539 0.11655,-0.1032 0.1284,-0.1095 0.03315,-0.0177 0.0552,0.0135 0.06465,0.093 0.01965,0.1645 0.07605,0.31297 0.16794,0.44169 0.11205,0.15708 0.267765,0.25597 0.47187,0.29976 0.10755,0.0231 0.295455,0.0238 0.431175,0.001 z m -2.370705,-1.05206 c -0.17535,-0.0374 -0.277425,-0.13785 -0.33642,-0.33124 -0.0168,-0.0548 -0.02145,-0.10725 -0.02025,-0.22206 0.006,-0.56175 0.34188,-1.22822 0.899235,-1.78568 0.30489,-0.30493 0.603255,-0.48628 0.859995,-0.52269 0.228675,-0.0324 0.445965,0.0765 0.51726,0.2592 0.0228,0.0585 0.02775,0.0932 0.027,0.19166 -0.001,0.1377 -0.03165,0.25903 -0.11385,0.45085 -0.02685,0.0629 -0.0486,0.1296 -0.04815,0.1485 8.85e-4,0.0387 0.02865,0.0743 0.0774,0.0994 0.01815,0.009 0.03315,0.0252 0.03315,0.0351 0,0.0695 -0.326925,0.59796 -0.535125,0.86504 -0.21183,0.27172 -0.60879,0.59742 -0.885915,0.72687 -0.166995,0.078 -0.351675,0.111 -0.474405,0.0849 z m -16.298608,0.87749 c 0.248563,-0.0135 0.414088,-0.0367 0.622858,-0.0864 0.97794,-0.23241 1.872285,-0.93878 2.866755,-2.26418 0.48315,-0.64392 0.933405,-1.33689 1.80663,-2.78053 0.0135,-0.0216 0.039,-0.0473 0.05745,-0.0568 0.05055,-0.0261 0.703815,-0.1002 1.370685,-0.15536 0.547935,-0.0453 0.594255,-0.0476 0.62676,-0.0303 0.0156,0.009 0.0663,0.056 0.11265,0.1056 0.163005,0.1749 0.47343,0.37455 0.58239,0.37455 0.0675,0 0.12,-0.0242 0.16566,-0.0762 0.08295,-0.0945 0.0777,-0.17244 -0.01605,-0.2419 -0.02715,-0.0201 -0.10335,-0.0759 -0.16938,-0.1239 -0.12735,-0.0927 -0.161895,-0.1338 -0.1374,-0.16334 0.0075,-0.009 0.05865,-0.0348 0.1131,-0.0564 0.401925,-0.16021 0.66819,-0.50227 0.70146,-0.90111 0.02565,-0.30783 -0.150135,-0.56892 -0.434265,-0.64492 -0.0804,-0.0215 -0.248685,-0.0207 -0.33711,10e-4 -0.289515,0.0734 -0.560325,0.33237 -0.672345,0.64309 -0.04935,0.1371 -0.0666,0.24885 -0.0666,0.43346 0,0.15052 -0.0015,0.16801 -0.02235,0.17884 -0.03855,0.0207 -1.412235,0.097 -1.429755,0.0795 -0.012,-0.012 0.0384,-0.1002 0.15975,-0.28279 0.21582,-0.32475 0.403815,-0.55368 0.714885,-0.87054 0.338595,-0.3449 0.70782,-0.66122 1.23351,-1.05678 0.1239,-0.0933 0.223275,-0.17687 0.23145,-0.19478 0.0075,-0.0172 0.015,-0.0582 0.015,-0.0909 0,-0.0327 0.006,-0.0596 0.012,-0.0596 0.0597,0 0.78846,0.18726 1.525245,0.39188 1.51863,0.42177 2.16204,0.55272 2.983305,0.60715 0.26445,0.0175 0.823755,0.007 1.05198,-0.0192 0.535455,-0.0623 0.94071,-0.17748 1.35468,-0.38533 0.53283,-0.26753 0.84186,-0.54992 0.919065,-0.83988 0.02535,-0.0954 0.02145,-0.22989 -0.009,-0.29187 -0.0339,-0.07 -0.0978,-0.12015 -0.17517,-0.13755 -0.0591,-0.0135 -0.0837,-0.0105 -0.361365,0.048 -0.6351,0.1326 -1.184385,0.20664 -1.903005,0.25642 -0.29136,0.0202 -1.378185,0.0199 -1.707225,-3.1e-4 -1.00137,-0.0618 -1.6494,-0.14535 -3.456525,-0.44574 -1.862265,-0.30956 -2.67324,-0.39755 -3.66693,-0.39785 -0.56871,-1.6e-4 -0.98691,0.0291 -1.388625,0.0974 -1.258785,0.21365 -2.318685,0.80768 -2.838165,1.59063 -0.22749,0.34289 -0.346573,0.70146 -0.367708,1.1072 -0.02685,0.51511 0.178633,0.98799 0.551323,1.26882 0.341835,0.25758 0.78876,0.34095 1.285305,0.23976 0.667275,-0.13605 1.29873,-0.6215 1.75356,-1.34829 0.09495,-0.15185 0.276105,-0.50765 0.311685,-0.61242 0.0558,-0.16451 0.04485,-0.28265 -0.03375,-0.36119 -0.1065,-0.1065 -0.21237,-0.0697 -0.33915,0.1182 -0.280005,0.41495 -0.76341,0.80078 -1.193325,0.95246 -0.3558,0.12555 -0.68682,0.0872 -0.885855,-0.10275 -0.1251,-0.1194 -0.18108,-0.27108 -0.18105,-0.49125 0,-0.33071 0.15039,-0.63887 0.463365,-0.9498 0.288975,-0.28707 0.58968,-0.46407 1.04913,-0.61751 0.829725,-0.27709 1.75812,-0.32251 2.97342,-0.1455 0.37881,0.0552 1.425705,0.24258 1.629075,0.29162 0.0873,0.021 0.08235,0.0498 -0.018,0.1059 -0.04305,0.024 -0.1431,0.0801 -0.22242,0.1245 -0.370305,0.20751 -0.72888,0.48886 -1.23102,0.96589 -0.338805,0.32186 -0.522315,0.53856 -0.970695,1.1462 -0.37353,0.5062 -0.368325,0.49984 -0.42174,0.51454 -0.02505,0.007 -0.2052,0.0399 -0.40026,0.0732 -0.510285,0.0873 -0.808515,0.16286 -1.100085,0.27867 -0.25704,0.10215 -0.552615,0.27465 -0.634695,0.37055 -0.14925,0.17437 -0.063,0.40719 0.15117,0.40818 0.07485,3.4e-4 0.11265,-0.0165 0.262755,-0.1167 0.301335,-0.20121 0.57159,-0.30927 0.89298,-0.35702 0.15264,-0.0226 0.30765,-0.0254 0.30765,-0.006 0,0.015 -0.31677,0.45344 -0.574035,0.79472 -0.32595,0.43236 -0.748365,0.93456 -1.103355,1.31173 -0.179595,0.19083 -0.53739,0.53232 -0.71541,0.68283 -0.450825,0.38114 -0.947565,0.62966 -1.43043,0.71564 -0.14355,0.0255 -0.461968,0.0287 -0.589108,0.006 -0.396525,-0.0717 -0.68439,-0.28505 -0.84732,-0.62816 -0.1215001,-0.25593 -0.1368001,-0.58234 -0.0405,-0.86938 0.0771,-0.22985 0.200925,-0.41627 0.424005,-0.63813 0.17832,-0.17735 0.310035,-0.27858 0.527325,-0.40529 0.20985,-0.1224 0.239625,-0.1443 0.266295,-0.19582 0.06885,-0.13305 -0.0105,-0.32292 -0.164385,-0.39213 -0.0561,-0.0254 -0.0807,-0.0285 -0.21951,-0.0283 -0.13395,9e-5 -0.172935,0.005 -0.27288,0.0331 -0.39705,0.11265 -0.801345,0.363 -1.122585,0.69532 -0.563604,0.58304 -0.8022525,1.41063 -0.640968,2.22278 0.186645,0.93985 0.983268,1.60228 2.023233,1.68243 0.174675,0.0135 0.18465,0.0135 0.41229,8.4e-4 z m 7.689883,-5.99528 c -0.01605,-0.0246 -0.0207,-0.0558 -0.01965,-0.1353 0.0015,-0.1386 0.0435,-0.26859 0.123,-0.38182 0.096,-0.13665 0.184245,-0.19565 0.293355,-0.19614 0.12135,-5.6e-4 0.17139,0.0597 0.16173,0.19485 -0.015,0.20931 -0.223215,0.44979 -0.45903,0.53011 -0.07575,0.0258 -0.0747,0.0259 -0.0993,-0.012 z"
       id="path21"
       inkscape:connector-curvature="0" />
  </g>
</svg>
