  0
SECTION
  2
HEADER
  9
$ACADVER
  1
AC1014
  9
$HANDSEED
  5
FFFF
  9
$MEASUREMENT
 70
     1
  0
ENDSEC
  0
SECTION
  2
TABLES
  0
TABLE
  2
VPORT
  5
8
330
0
100
AcDbSymbolTable
 70
     4
  0
VPORT
  5
2E
330
8
100
AcDbSymbolTableRecord
100
AcDbViewportTableRecord
  2
*ACTIVE
 70
     0
 10
0.0
 20
0.0
 11
1.0
 21
1.0
 12
210.0
 22
148.5
 13
0.0
 23
0.0
 14
10.0
 24
10.0
 15
10.0
 25
10.0
 16
0.0
 26
0.0
 36
1.0
 17
0.0
 27
0.0
 37
0.0
 40
341.0
 41
1.24
 42
50.0
 43
0.0
 44
0.0
 50
0.0
 51
0.0
 71
     0
 72
   100
 73
     1
 74
     3
 75
     0
 76
     0
 77
     0
 78
     0
  0
ENDTAB
  0
TABLE
  2
LTYPE
  5
5
330
0
100
AcDbSymbolTable
 70
     1
  0
LTYPE
  5
14
330
5
100
AcDbSymbolTableRecord
100
AcDbLinetypeTableRecord
  2
BYBLOCK
 70
     0
  3

 72
    65
 73
     0
 40
0.0
  0
LTYPE
  5
15
330
5
100
AcDbSymbolTableRecord
100
AcDbLinetypeTableRecord
  2
BYLAYER
 70
     0
  3

 72
    65
 73
     0
 40
0.0
  0
LTYPE
  5
16
330
5
100
AcDbSymbolTableRecord
100
AcDbLinetypeTableRecord
  2
CONTINUOUS
 70
     0
  3
Solid line
 72
    65
 73
     0
 40
0.0
  0
ENDTAB
  0
TABLE
  2
LAYER
  5
2
100
AcDbSymbolTable
 70
2
  0
LAYER
  5
50
100
AcDbSymbolTableRecord
100
AcDbLayerTableRecord
  2
0
 70
0
  6
CONTINUOUS
  0
LAYER
  5
51
100
AcDbSymbolTableRecord
100
AcDbLayerTableRecord
  2
Layer_1
 70
0
  6
CONTINUOUS
  0
ENDTAB
  0
TABLE
  2
STYLE
  5
3
330
0
100
AcDbSymbolTable
 70
     1
  0
STYLE
  5
11
330
3
100
AcDbSymbolTableRecord
100
AcDbTextStyleTableRecord
  2
STANDARD
 70
     0
 40
0.0
 41
1.0
 50
0.0
 71
     0
 42
2.5
  3
txt
  4

  0
ENDTAB
  0
TABLE
  2
VIEW
  5
6
330
0
100
AcDbSymbolTable
 70
     0
  0
ENDTAB
  0
TABLE
  2
UCS
  5
7
330
0
100
AcDbSymbolTable
 70
     0
  0
ENDTAB
  0
TABLE
  2
APPID
  5
9
330
0
100
AcDbSymbolTable
 70
     2
  0
APPID
  5
12
330
9
100
AcDbSymbolTableRecord
100
AcDbRegAppTableRecord
  2
ACAD
 70
     0
  0
ENDTAB
  0
TABLE
  2
DIMSTYLE
  5
A
330
0
100
AcDbSymbolTable
 70
     1
  0
DIMSTYLE
105
27
330
A
100
AcDbSymbolTableRecord
100
AcDbDimStyleTableRecord
  2
ISO-25
 70
     0
  3

  4

  5

  6

  7

 40
1.0
 41
2.5
 42
0.625
 43
3.75
 44
1.25
 45
0.0
 46
0.0
 47
0.0
 48
0.0
140
2.5
141
2.5
142
0.0
143
0.03937007874016
144
1.0
145
0.0
146
1.0
147
0.625
 71
     0
 72
     0
 73
     0
 74
     0
 75
     0
 76
     0
 77
     1
 78
     8
170
     0
171
     3
172
     1
173
     0
174
     0
175
     0
176
     0
177
     0
178
     0
270
     2
271
     2
272
     2
273
     2
274
     3
340
11
275
     0
280
     0
281
     0
282
     0
283
     0
284
     8
285
     0
286
     0
287
     3
288
     0
  0
ENDTAB
  0
TABLE
  2
BLOCK_RECORD
  5
1
330
0
100
AcDbSymbolTable
 70
     1
  0
BLOCK_RECORD
  5
1F
330
1
100
AcDbSymbolTableRecord
100
AcDbBlockTableRecord
  2
*MODEL_SPACE
  0
BLOCK_RECORD
  5
1B
330
1
100
AcDbSymbolTableRecord
100
AcDbBlockTableRecord
  2
*PAPER_SPACE
  0
ENDTAB
  0
ENDSEC
  0
SECTION
  2
BLOCKS
  0
BLOCK
  5
20
330
1F
100
AcDbEntity
  8
0
100
AcDbBlockBegin
  2
*MODEL_SPACE
 70
     0
 10
0.0
 20
0.0
 30
0.0
  3
*MODEL_SPACE
  1

  0
ENDBLK
  5
21
330
1F
100
AcDbEntity
  8
0
100
AcDbBlockEnd
  0
BLOCK
  5
1C
330
1B
100
AcDbEntity
 67
     1
  8
0
100
AcDbBlockBegin
  2
*PAPER_SPACE
  1

  0
ENDBLK
  5
1D
330
1B
100
AcDbEntity
 67
     1
  8
0
100
AcDbBlockEnd
  0
ENDSEC
  0
SECTION
  2
ENTITIES
  0
SPLINE
  5
100
100
AcDbEntity
  8
Layer_1
 62
7
100
AcDbSpline
 70
0
 71
3
 72
61
 73
57
 74
55
 40
0.000000
 40
0.000000
 40
0.000000
 40
0.000000
 40
2.665153
 40
5.215028
 40
7.659730
 40
11.901404
 40
15.567745
 40
18.609007
 40
19.873875
 40
20.988854
 40
21.973011
 40
22.102836
 40
22.263657
 40
22.515128
 40
22.591814
 40
22.709103
 40
22.858350
 40
23.038222
 40
23.168199
 40
23.311170
 40
23.587695
 40
23.831536
 40
24.086095
 40
25.174103
 40
26.403646
 40
27.828601
 40
31.055571
 40
34.908207
 40
39.321870
 40
40.850727
 40
42.422572
 40
44.164473
 40
45.546895
 40
47.016420
 40
48.229208
 40
48.423293
 40
48.654544
 40
48.872889
 40
53.149312
 40
57.204969
 40
60.915351
 40
64.319639
 40
67.058314
 40
69.193702
 40
69.819225
 40
70.422254
 40
70.970178
 40
71.471852
 40
71.945004
 40
72.441204
 40
74.457335
 40
76.982503
 40
80.061869
 40
83.830164
 40
87.994757
 40
92.376456
 40
92.376456
 40
92.376456
 40
92.376456
 10
20.010585
 20
0.005780
 30
0.0
 10
19.122594
 20
0.036465
 30
0.0
 10
17.385021
 20
0.096506
 30
0.0
 10
14.840962
 20
0.330427
 30
0.0
 10
11.791632
 20
0.759314
 30
0.0
 10
8.411761
 20
1.495881
 30
0.0
 10
4.958758
 20
2.702485
 30
0.0
 10
2.603559
 20
3.985791
 30
0.0
 10
1.229458
 20
5.171064
 30
0.0
 10
0.522940
 20
6.051264
 30
0.0
 10
0.202339
 20
6.733140
 30
0.0
 10
0.092332
 20
7.143791
 30
0.0
 10
0.056892
 20
7.320992
 30
0.0
 10
0.021067
 20
7.480261
 30
0.0
 10
0.004647
 20
7.627959
 30
0.0
 10
0.000946
 20
7.742383
 30
0.0
 10
-0.000339
 20
7.891157
 30
0.0
 10
0.000085
 20
8.044224
 30
0.0
 10
0.010213
 20
8.195013
 30
0.0
 10
0.040139
 20
8.375835
 30
0.0
 10
0.080839
 20
8.593250
 30
0.0
 10
0.149520
 20
8.842641
 30
0.0
 10
0.332879
 20
9.339026
 30
0.0
 10
0.768018
 20
10.089966
 30
0.0
 10
1.633232
 20
10.999854
 30
0.0
 10
3.210114
 20
12.175896
 30
0.0
 10
5.779349
 20
13.423050
 30
0.0
 10
9.448630
 20
14.553303
 30
0.0
 10
12.665324
 20
15.151620
 30
0.0
 10
15.150954
 20
15.462053
 30
0.0
 10
16.759075
 20
15.605456
 30
0.0
 10
18.321571
 20
15.703973
 30
0.0
 10
19.852170
 20
15.755244
 30
0.0
 10
21.207072
 20
15.769589
 30
0.0
 10
22.166018
 20
15.757735
 30
0.0
 10
22.711630
 20
15.736010
 30
0.0
 10
22.926031
 20
15.727738
 30
0.0
 10
24.500306
 20
15.670260
 30
0.0
 10
27.346046
 20
15.457947
 30
0.0
 10
31.313891
 20
14.814359
 30
0.0
 10
34.921622
 20
13.869799
 30
0.0
 10
37.983940
 20
12.641371
 30
0.0
 10
40.332918
 20
11.169153
 30
0.0
 10
41.582341
 20
9.744019
 30
0.0
 10
41.970515
 20
8.685653
 30
0.0
 10
42.080009
 20
8.100120
 30
0.0
 10
42.065201
 20
7.545204
 30
0.0
 10
41.955564
 20
7.047717
 30
0.0
 10
41.792042
 20
6.583990
 30
0.0
 10
41.324008
 20
5.702092
 30
0.0
 10
40.137847
 20
4.462171
 30
0.0
 10
37.961302
 20
3.128038
 30
0.0
 10
35.060346
 20
1.938512
 30
0.0
 10
31.507449
 20
0.989709
 30
0.0
 10
27.452693
 20
0.300911
 30
0.0
 10
24.607342
 20
0.130004
 30
0.0
 10
23.148525
 20
0.042380
 30
0.0
 11
20.010585
 21
0.005780
 31
0.0
 11
17.348044
 21
0.123747
 31
0.0
 11
14.808616
 21
0.354333
 31
0.0
 11
12.388185
 21
0.697960
 31
0.0
 11
8.249204
 21
1.625663
 31
0.0
 11
4.801605
 21
2.873107
 31
0.0
 11
2.168876
 21
4.395610
 31
0.0
 11
1.220675
 21
5.232751
 31
0.0
 11
0.534664
 21
6.111709
 31
0.0
 11
0.129486
 21
7.008590
 31
0.0
 11
0.096220
 21
7.134081
 31
0.0
 11
0.062323
 21
7.291289
 31
0.0
 11
0.015276
 21
7.538320
 31
0.0
 11
0.006934
 21
7.614550
 31
0.0
 11
0.001699
 21
7.731723
 31
0.0
 11
0.000006
 21
7.880960
 31
0.0
 11
0.002370
 21
8.060816
 31
0.0
 11
0.011909
 21
8.190444
 31
0.0
 11
0.033201
 21
8.331820
 31
0.0
 11
0.086852
 21
8.603090
 31
0.0
 11
0.151785
 21
8.838127
 31
0.0
 11
0.239135
 21
9.077230
 31
0.0
 11
0.775747
 21
10.023701
 31
0.0
 11
1.609085
 21
10.927762
 31
0.0
 11
2.741811
 21
11.792300
 31
0.0
 11
5.615566
 21
13.260247
 31
0.0
 11
9.285934
 21
14.431233
 31
0.0
 11
13.620510
 21
15.263020
 31
0.0
 11
15.137710
 21
15.451458
 31
0.0
 11
16.703080
 21
15.593982
 31
0.0
 11
18.441630
 21
15.701980
 31
0.0
 11
19.823247
 21
15.749158
 31
0.0
 11
21.292693
 21
15.764336
 31
0.0
 11
22.505310
 21
15.743980
 31
0.0
 11
22.699253
 21
15.736539
 31
0.0
 11
22.930332
 21
15.727654
 31
0.0
 11
23.148525
 21
15.719480
 31
0.0
 11
27.412211
 21
15.389664
 31
0.0
 11
31.413859
 21
14.730002
 31
0.0
 11
34.996905
 21
13.766300
 31
0.0
 11
38.139793
 21
12.458081
 31
0.0
 11
40.417057
 21
10.936765
 31
0.0
 11
41.740725
 21
9.261120
 31
0.0
 11
41.955989
 21
8.673804
 31
0.0
 11
42.061101
 21
8.080006
 31
0.0
 11
42.046755
 21
7.532270
 31
0.0
 11
41.943399
 21
7.041358
 31
0.0
 11
41.784071
 21
6.595839
 31
0.0
 11
41.554575
 21
6.155900
 31
0.0
 11
40.212826
 21
4.651078
 31
0.0
 11
38.092399
 21
3.279849
 31
0.0
 11
35.255400
 21
2.082380
 31
0.0
 11
31.623434
 21
1.077958
 31
0.0
 11
27.516731
 21
0.385982
 31
0.0
 11
23.148525
 21
0.042380
 31
0.0
  0
SPLINE
  5
101
100
AcDbEntity
  8
Layer_1
 62
7
100
AcDbSpline
 70
0
 71
3
 72
13
 73
9
 74
7
 40
0.000000
 40
0.000000
 40
0.000000
 40
0.000000
 40
0.222767
 40
0.454010
 40
0.643693
 40
1.342234
 40
2.346212
 40
3.138566
 40
3.138566
 40
3.138566
 40
3.138566
 10
23.148525
 20
0.042380
 30
0.0
 10
23.074325
 20
0.039497
 30
0.0
 10
22.923102
 20
0.033621
 30
0.0
 10
22.708677
 20
0.025931
 30
0.0
 10
22.335858
 20
0.009793
 30
0.0
 10
21.705043
 20
0.003611
 30
0.0
 10
20.873463
 20
-0.002664
 30
0.0
 10
20.274698
 20
0.003057
 30
0.0
 10
20.010585
 20
0.005580
 30
0.0
 11
23.148525
 21
0.042380
 31
0.0
 11
22.925922
 21
0.033839
 31
0.0
 11
22.694843
 21
0.025121
 31
0.0
 11
22.505310
 21
0.017580
 31
0.0
 11
21.806886
 21
0.004824
 31
0.0
 11
20.802919
 21
0.000002
 31
0.0
 11
20.010585
 21
0.005580
 31
0.0
  0
LWPOLYLINE
  5
102
100
AcDbEntity
  8
Layer_1
 62
7
100
AcDbPolyline
 90
2
 70
0
 10
20.010585
 20
0.005580
 30
0.0
 10
20.010585
 20
0.005780
 30
0.0
  0
SPLINE
  5
103
100
AcDbEntity
  8
Layer_1
 62
7
100
AcDbSpline
 70
0
 71
3
 72
55
 73
51
 74
49
 40
0.000000
 40
0.000000
 40
0.000000
 40
0.000000
 40
5.412874
 40
10.361382
 40
14.634455
 40
15.089772
 40
15.617129
 40
16.034177
 40
16.938191
 40
17.741774
 40
18.481473
 40
19.415168
 40
20.230418
 40
20.991075
 40
21.534106
 40
22.092625
 40
22.673558
 40
23.342513
 40
24.080491
 40
24.899778
 40
26.393315
 40
28.123326
 40
30.066717
 40
33.441021
 40
37.145486
 40
41.128421
 40
42.804057
 40
44.551393
 40
46.251634
 40
50.464089
 40
54.392126
 40
57.955426
 40
61.235958
 40
63.807623
 40
65.770548
 40
66.300464
 40
66.820448
 40
67.347058
 40
67.515108
 40
67.716362
 40
67.902359
 40
69.495533
 40
71.483245
 40
73.933542
 40
76.387238
 40
79.115896
 40
82.059610
 40
84.907169
 40
87.814781
 40
90.809550
 40
90.809550
 40
90.809550
 40
90.809550
 10
22.415130
 20
0.691640
 30
0.0
 10
24.219118
 20
0.783013
 30
0.0
 10
27.672332
 20
0.957921
 30
0.0
 10
32.477952
 20
1.854047
 30
0.0
 10
35.577448
 20
2.813654
 30
0.0
 10
37.164897
 20
3.555474
 30
0.0
 10
37.583250
 20
3.762078
 30
0.0
 10
38.129959
 20
4.046452
 30
0.0
 10
38.736286
 20
4.413933
 30
0.0
 10
39.402941
 20
4.885971
 30
0.0
 10
40.024516
 20
5.431223
 30
0.0
 10
40.580557
 20
6.052421
 30
0.0
 10
41.003483
 20
6.782675
 30
0.0
 10
41.192967
 20
7.472644
 30
0.0
 10
41.206793
 20
8.097655
 30
0.0
 10
41.100104
 20
8.652277
 30
0.0
 10
40.873465
 20
9.214586
 30
0.0
 10
40.513895
 20
9.775297
 30
0.0
 10
40.020324
 20
10.332474
 30
0.0
 10
39.254518
 20
11.004968
 30
0.0
 10
38.121191
 20
11.744132
 30
0.0
 10
36.571604
 20
12.502570
 30
0.0
 10
34.370008
 20
13.330411
 30
0.0
 10
31.457381
 20
14.103941
 30
0.0
 10
27.817417
 20
14.716415
 30
0.0
 10
24.705094
 20
14.991788
 30
0.0
 10
22.237716
 20
15.077973
 30
0.0
 10
20.529731
 20
15.087787
 30
0.0
 10
17.976791
 20
15.030078
 30
0.0
 10
14.702545
 20
14.777113
 30
0.0
 10
10.845190
 20
14.160233
 30
0.0
 10
7.365083
 20
13.252414
 30
0.0
 10
4.439088
 20
12.077805
 30
0.0
 10
2.229896
 20
10.667036
 30
0.0
 10
1.141807
 20
9.283406
 30
0.0
 10
0.882393
 20
8.305712
 30
0.0
 10
0.851203
 20
7.778347
 30
0.0
 10
0.901722
 20
7.373240
 30
0.0
 10
0.984380
 20
7.086075
 30
0.0
 10
1.045078
 20
6.911145
 30
0.0
 10
1.290629
 20
6.297864
 30
0.0
 10
2.090194
 20
5.283127
 30
0.0
 10
3.727743
 20
4.099635
 30
0.0
 10
5.807743
 20
3.100802
 30
0.0
 10
8.217720
 20
2.275657
 30
0.0
 10
10.849724
 20
1.623002
 30
0.0
 10
13.650922
 20
1.141897
 30
0.0
 10
16.534845
 20
0.828771
 30
0.0
 10
19.448878
 20
0.663799
 30
0.0
 10
21.416694
 20
0.682249
 30
0.0
 10
22.415130
 20
0.691610
 30
0.0
 11
22.415130
 21
0.691640
 31
0.0
 11
27.813238
 21
1.091179
 31
0.0
 11
32.678297
 21
1.996131
 31
0.0
 11
36.729765
 21
3.354350
 31
0.0
 11
37.142472
 21
3.546669
 31
0.0
 11
37.615303
 21
3.780198
 31
0.0
 11
37.984560
 21
3.974050
 31
0.0
 11
38.758738
 21
4.440837
 31
0.0
 11
39.411362
 21
4.909693
 31
0.0
 11
39.966840
 21
5.398160
 31
0.0
 11
40.579652
 21
6.102609
 31
0.0
 11
40.979323
 21
6.813168
 31
0.0
 11
41.176035
 21
7.547950
 31
0.0
 11
41.187715
 21
8.090855
 31
0.0
 11
41.084575
 21
8.639769
 31
0.0
 11
40.869495
 21
9.179420
 31
0.0
 11
40.513394
 21
9.745717
 31
0.0
 11
40.028101
 21
10.301686
 31
0.0
 11
39.415260
 21
10.845430
 31
0.0
 11
38.173936
 21
11.675953
 31
0.0
 11
36.625429
 21
12.447357
 31
0.0
 11
34.809585
 21
13.139800
 31
0.0
 11
31.553947
 21
14.026789
 31
0.0
 11
27.903078
 21
14.654658
 31
0.0
 11
23.936010
 21
15.009820
 31
0.0
 11
22.261425
 21
15.069164
 31
0.0
 11
20.514120
 21
15.079509
 31
0.0
 11
18.814335
 21
15.040120
 31
0.0
 11
14.614761
 21
14.710943
 31
0.0
 11
10.738384
 21
14.075987
 31
0.0
 11
7.296566
 21
13.153490
 31
0.0
 11
4.270439
 21
11.886823
 31
0.0
 11
2.156751
 21
10.421974
 31
0.0
 11
1.032923
 21
8.812600
 31
0.0
 11
0.899276
 21
8.299813
 31
0.0
 11
0.867190
 21
7.780820
 31
0.0
 11
0.936863
 21
7.258840
 31
0.0
 11
0.982620
 21
7.097139
 31
0.0
 11
1.048282
 21
6.906898
 31
0.0
 11
1.117871
 21
6.734410
 31
0.0
 11
2.048448
 21
5.441262
 31
0.0
 11
3.629118
 21
4.236074
 31
0.0
 11
5.823776
 21
3.146380
 31
0.0
 11
8.140371
 21
2.337669
 31
0.0
 11
10.786481
 21
1.671578
 31
0.0
 11
13.686645
 21
1.167100
 31
0.0
 11
16.517059
 21
0.855085
 31
0.0
 11
19.420366
 21
0.696925
 31
0.0
 11
22.415130
 21
0.691610
 31
0.0
  0
LWPOLYLINE
  5
104
100
AcDbEntity
  8
Layer_1
 62
7
100
AcDbPolyline
 90
1
 70
1
 10
22.415130
 20
0.691610
 30
0.0
  0
SPLINE
  5
105
100
AcDbEntity
  8
Layer_1
 62
7
100
AcDbSpline
 70
0
 71
3
 72
52
 73
48
 74
46
 40
0.000000
 40
0.000000
 40
0.000000
 40
0.000000
 40
3.757622
 40
7.390803
 40
10.773276
 40
13.512750
 40
15.886816
 40
17.852154
 40
18.954381
 40
19.893063
 40
20.730870
 40
20.851511
 40
20.972674
 40
21.170127
 40
21.420360
 40
21.607611
 40
21.818476
 40
23.592300
 40
25.968296
 40
29.058325
 40
29.770730
 40
30.464403
 40
31.212194
 40
36.024318
 40
41.255025
 40
46.667373
 40
50.822462
 40
54.630997
 40
57.968623
 40
60.632007
 40
62.666700
 40
64.229844
 40
64.955695
 40
65.717884
 40
66.577970
 40
68.499222
 40
70.944457
 40
73.891783
 40
77.121707
 40
80.615089
 40
84.344943
 40
85.007333
 40
85.886321
 40
86.359047
 40
86.421140
 40
86.555052
 40
86.731777
 40
86.731777
 40
86.731777
 40
86.731777
 10
20.515545
 20
1.288690
 30
0.0
 10
19.262983
 20
1.323026
 30
0.0
 10
16.799339
 20
1.390560
 30
0.0
 10
13.227377
 20
1.801117
 30
0.0
 10
10.027943
 20
2.399847
 30
0.0
 10
7.298731
 20
3.172689
 30
0.0
 10
5.102498
 20
4.047384
 30
0.0
 10
3.519493
 20
4.956017
 30
0.0
 10
2.503429
 20
5.831693
 30
0.0
 10
1.909295
 20
6.597699
 30
0.0
 10
1.678074
 20
7.197244
 30
0.0
 10
1.607014
 20
7.550492
 30
0.0
 10
1.597964
 20
7.696959
 30
0.0
 10
1.598744
 20
7.886491
 30
0.0
 10
1.597462
 20
8.098367
 30
0.0
 10
1.623009
 20
8.313594
 30
0.0
 10
1.805269
 20
9.016000
 30
0.0
 10
2.690713
 20
10.255168
 30
0.0
 10
4.742285
 20
11.567388
 30
0.0
 10
6.661068
 20
12.338294
 30
0.0
 10
8.088407
 20
12.794888
 30
0.0
 10
8.778041
 20
12.995007
 30
0.0
 10
10.794704
 20
13.523084
 30
0.0
 10
14.345603
 20
14.155761
 30
0.0
 10
19.490569
 20
14.530138
 30
0.0
 10
24.429988
 20
14.438842
 30
0.0
 10
28.868826
 20
13.969757
 30
0.0
 10
32.570956
 20
13.244785
 30
0.0
 10
35.703950
 20
12.277777
 30
0.0
 10
38.128894
 20
11.111828
 30
0.0
 10
39.796838
 20
9.813829
 30
0.0
 10
40.504643
 20
8.465665
 30
0.0
 10
40.470706
 20
7.428558
 30
0.0
 10
40.193736
 20
6.684588
 30
0.0
 10
39.500343
 20
5.715271
 30
0.0
 10
38.096656
 20
4.637353
 30
0.0
 10
35.897165
 20
3.570577
 30
0.0
 10
33.157331
 20
2.677171
 30
0.0
 10
30.005098
 20
1.984955
 30
0.0
 10
26.549258
 20
1.517541
 30
0.0
 10
23.924393
 20
1.336436
 30
0.0
 10
22.167651
 20
1.298790
 30
0.0
 10
21.496416
 20
1.290633
 30
0.0
 10
21.025093
 20
1.280244
 30
0.0
 10
20.802237
 20
1.285546
 30
0.0
 10
20.677994
 20
1.286462
 30
0.0
 10
20.574452
 20
1.287194
 30
0.0
 10
20.515545
 20
1.287610
 30
0.0
 11
20.515545
 21
1.288690
 31
0.0
 11
16.761261
 21
1.447045
 31
0.0
 11
13.150994
 21
1.854449
 31
0.0
 11
9.829652
 21
2.494610
 31
0.0
 11
7.197468
 21
3.253771
 31
0.0
 11
5.000816
 21
4.154276
 31
0.0
 11
3.315357
 21
5.165110
 31
0.0
 11
2.490066
 21
5.895725
 31
0.0
 11
1.930392
 21
6.649309
 31
0.0
 11
1.631721
 21
7.432070
 31
0.0
 11
1.609770
 21
7.550697
 31
0.0
 11
1.600548
 21
7.671509
 31
0.0
 11
1.598376
 21
7.868950
 31
0.0
 11
1.603264
 21
8.119136
 31
0.0
 11
1.625999
 21
8.305001
 31
0.0
 11
1.676781
 21
8.509660
 31
0.0
 11
2.629341
 21
10.006016
 31
0.0
 11
4.568029
 21
11.379641
 31
0.0
 11
7.416792
 21
12.576650
 31
0.0
 11
8.095337
 21
12.793671
 31
0.0
 11
8.761481
 21
12.987152
 31
0.0
 11
9.484697
 21
13.177280
 31
0.0
 11
14.216675
 21
14.051880
 31
0.0
 11
19.432391
 21
14.447607
 31
0.0
 11
24.843720
 21
14.342600
 31
0.0
 11
28.974582
 21
13.894559
 31
0.0
 11
32.708568
 21
13.144695
 31
0.0
 11
35.886600
 21
12.124960
 31
0.0
 11
38.265197
 21
10.926675
 31
0.0
 11
39.804293
 21
9.595825
 31
0.0
 11
40.455090
 21
8.174600
 31
0.0
 11
40.433285
 21
7.449077
 31
0.0
 11
40.177450
 21
6.731107
 31
0.0
 11
39.688605
 21
6.023450
 31
0.0
 11
38.210191
 21
4.796460
 31
0.0
 11
36.029284
 21
3.690650
 31
0.0
 11
33.235590
 21
2.751500
 31
0.0
 11
30.083770
 21
2.045497
 31
0.0
 11
26.623610
 21
1.564859
 31
0.0
 11
22.902060
 21
1.316110
 31
0.0
 11
22.239838
 21
1.301217
 31
0.0
 11
21.360962
 21
1.287103
 31
0.0
 11
20.888250
 21
1.283610
 31
0.0
 11
20.826169
 21
1.284869
 31
0.0
 11
20.692266
 21
1.286351
 31
0.0
 11
20.515545
 21
1.287610
 31
0.0
  0
LWPOLYLINE
  5
106
100
AcDbEntity
  8
Layer_1
 62
7
100
AcDbPolyline
 90
2
 70
0
 10
20.515545
 20
1.287610
 30
0.0
 10
20.515545
 20
1.288690
 30
0.0
  0
SPLINE
  5
107
100
AcDbEntity
  8
Layer_1
 62
7
100
AcDbSpline
 70
0
 71
3
 72
307
 73
303
 74
301
 40
0.000000
 40
0.000000
 40
0.000000
 40
0.000000
 40
0.432610
 40
0.925202
 40
1.478831
 40
2.073010
 40
2.744392
 40
3.455261
 40
3.584346
 40
3.661677
 40
3.699104
 40
3.758809
 40
3.879002
 40
4.055833
 40
4.164340
 40
4.350263
 40
4.891313
 40
5.566529
 40
6.014697
 40
6.393672
 40
6.726756
 40
6.982787
 40
7.182846
 40
7.326614
 40
7.489853
 40
7.723120
 40
8.441168
 40
9.882786
 40
12.076062
 40
13.380497
 40
13.954176
 40
14.094608
 40
14.111188
 40
14.130351
 40
14.150174
 40
14.207075
 40
14.380333
 40
14.756183
 40
15.133628
 40
15.306564
 40
15.363820
 40
15.411494
 40
15.504114
 40
15.621864
 40
16.516533
 40
17.935301
 40
18.881166
 40
18.935595
 40
18.971556
 40
19.001928
 40
19.024091
 40
19.059058
 40
19.099454
 40
19.403987
 40
19.740962
 40
20.100779
 40
20.253230
 40
20.383925
 40
20.576725
 40
20.739633
 40
20.845577
 40
20.943046
 40
21.330334
 40
21.745834
 40
22.215381
 40
22.477866
 40
22.781151
 40
23.192679
 40
23.741253
 40
24.137345
 40
24.473011
 40
24.847289
 40
25.158507
 40
25.411520
 40
25.889514
 40
26.410110
 40
27.059454
 40
27.150438
 40
27.200353
 40
27.230743
 40
27.249873
 40
27.288149
 40
27.388307
 40
27.563046
 40
27.713266
 40
27.870224
 40
28.029761
 40
28.181109
 40
28.343559
 40
28.684835
 40
29.038528
 40
29.423240
 40
29.639129
 40
29.839432
 40
30.046341
 40
30.214392
 40
30.396767
 40
30.563817
 40
30.716948
 40
30.863469
 40
31.034217
 40
31.209112
 40
31.372999
 40
31.540913
 40
31.876553
 40
32.238727
 40
32.592752
 40
32.694102
 40
32.743723
 40
32.767836
 40
32.799640
 40
32.868575
 40
32.960121
 40
33.219494
 40
33.432059
 40
33.632375
 40
33.813586
 40
33.994669
 40
34.206574
 40
34.412193
 40
34.620851
 40
34.852569
 40
35.266759
 40
35.775058
 40
36.482827
 40
36.687605
 40
36.832933
 40
36.893016
 40
36.919253
 40
36.970805
 40
37.090013
 40
37.377299
 40
37.652590
 40
37.915807
 40
38.093771
 40
38.224883
 40
38.342219
 40
38.501169
 40
38.742965
 40
38.926983
 40
39.010029
 40
39.100582
 40
39.258192
 40
39.495564
 40
39.711223
 40
39.939989
 40
40.617400
 40
41.260271
 40
41.891385
 40
42.391221
 40
42.834742
 40
43.223087
 40
43.426104
 40
43.630204
 40
43.840103
 40
43.992795
 40
44.134974
 40
44.303055
 40
44.553917
 40
44.810957
 40
45.094077
 40
45.750402
 40
46.447475
 40
47.231423
 40
47.442445
 40
47.534803
 40
47.686006
 40
47.855085
 40
47.951781
 40
48.032357
 40
48.089374
 40
48.146508
 40
48.250751
 40
48.588235
 40
48.969265
 40
49.395228
 40
50.015343
 40
50.647026
 40
51.329862
 40
51.580200
 40
51.876526
 40
52.153643
 40
52.593348
 40
52.995896
 40
53.530696
 40
53.729365
 40
53.825582
 40
53.882662
 40
54.027358
 40
54.231745
 40
54.369264
 40
54.392009
 40
54.417311
 40
54.440227
 40
54.615996
 40
54.921221
 40
55.262096
 40
55.370404
 40
55.450895
 40
55.486526
 40
55.516454
 40
55.574326
 40
55.671975
 40
56.004165
 40
56.331592
 40
56.655711
 40
56.874707
 40
57.094660
 40
57.326091
 40
57.511499
 40
57.734683
 40
57.915850
 40
58.580276
 40
59.291748
 40
60.108516
 40
60.295704
 40
60.478948
 40
60.728952
 40
61.120463
 40
61.591739
 40
62.039298
 40
62.525733
 40
63.001930
 40
63.392810
 40
63.555173
 40
63.719884
 40
63.844636
 40
64.036082
 40
64.204067
 40
64.447650
 40
64.722868
 40
65.209344
 40
65.877023
 40
66.208356
 40
66.575865
 40
67.182879
 40
67.858919
 40
68.178088
 40
68.281398
 40
68.293011
 40
68.309283
 40
68.327803
 40
68.371351
 40
68.521839
 40
68.896901
 40
69.240882
 40
69.411305
 40
69.473684
 40
69.515463
 40
69.591192
 40
69.698329
 40
69.908318
 40
70.276323
 40
70.722712
 40
71.737338
 40
72.254623
 40
72.405684
 40
72.423849
 40
72.472470
 40
72.565550
 40
72.819982
 40
73.041247
 40
73.260053
 40
73.573906
 40
73.885333
 40
74.230120
 40
74.512488
 40
74.845273
 40
75.174250
 40
75.303711
 40
75.363401
 40
75.555262
 40
76.016560
 40
76.446384
 40
76.850947
 40
77.099083
 40
77.358579
 40
77.618547
 40
77.710802
 40
77.799964
 40
77.927996
 40
78.103261
 40
78.248781
 40
78.423233
 40
78.779039
 40
79.163958
 40
79.569083
 40
79.645374
 40
79.705998
 40
79.737916
 40
79.767344
 40
79.805199
 40
79.870018
 40
80.032196
 40
80.190000
 40
80.347073
 40
80.534320
 40
80.720246
 40
80.918433
 40
81.048795
 40
81.202338
 40
81.351302
 40
81.351302
 40
81.351302
 40
81.351302
 10
29.899635
 20
3.366110
 30
0.0
 10
30.040264
 20
3.400128
 30
0.0
 10
30.341020
 20
3.472882
 30
0.0
 10
30.780044
 20
3.706340
 30
0.0
 10
31.227096
 20
4.022151
 30
0.0
 10
31.680597
 20
4.425969
 30
0.0
 10
32.145403
 20
4.894299
 30
0.0
 10
32.478998
 20
5.268891
 30
0.0
 10
32.675257
 20
5.506949
 30
0.0
 10
32.722609
 20
5.569986
 30
0.0
 10
32.752597
 20
5.626031
 30
0.0
 10
32.698366
 20
5.689907
 30
0.0
 10
32.619974
 20
5.772062
 30
0.0
 10
32.520435
 20
5.856263
 30
0.0
 10
32.383025
 20
5.973465
 30
0.0
 10
32.150114
 20
5.710337
 30
0.0
 10
31.841648
 20
5.434414
 30
0.0
 10
31.439165
 20
5.022901
 30
0.0
 10
31.069893
 20
4.689739
 30
0.0
 10
30.763467
 20
4.452108
 30
0.0
 10
30.486563
 20
4.283639
 30
0.0
 10
30.227774
 20
4.210676
 30
0.0
 10
30.019576
 20
4.258309
 30
0.0
 10
29.907646
 20
4.402688
 30
0.0
 10
29.920622
 20
4.592669
 30
0.0
 10
30.072220
 20
4.932028
 30
0.0
 10
30.500756
 20
5.607416
 30
0.0
 10
31.270784
 20
6.838365
 30
0.0
 10
32.135677
 20
8.223930
 30
0.0
 10
32.938893
 20
9.356625
 30
0.0
 10
33.216563
 20
9.932238
 30
0.0
 10
33.412633
 20
10.132298
 30
0.0
 10
33.400524
 20
10.191337
 30
0.0
 10
33.390209
 20
10.207027
 30
0.0
 10
33.366062
 20
10.229151
 30
0.0
 10
33.277746
 20
10.233827
 30
0.0
 10
33.080780
 20
10.237681
 30
0.0
 10
32.769837
 20
10.234265
 30
0.0
 10
32.458153
 20
10.233514
 30
0.0
 10
32.261748
 20
10.228185
 30
0.0
 10
32.162538
 20
10.220319
 30
0.0
 10
32.124052
 20
10.162003
 30
0.0
 10
32.073769
 20
10.094535
 30
0.0
 10
31.877337
 20
9.780333
 30
0.0
 10
31.435006
 20
9.103470
 30
0.0
 10
30.831927
 20
8.203968
 30
0.0
 10
30.407637
 20
7.506402
 30
0.0
 10
30.202608
 20
7.235872
 30
0.0
 10
30.161607
 20
7.214231
 30
0.0
 10
30.134824
 20
7.236757
 30
0.0
 10
30.127802
 20
7.265076
 30
0.0
 10
30.118321
 20
7.296200
 30
0.0
 10
30.093266
 20
7.420390
 30
0.0
 10
29.991847
 20
7.631464
 30
0.0
 10
29.744185
 20
7.864671
 30
0.0
 10
29.485038
 20
7.986804
 30
0.0
 10
29.279463
 20
8.049008
 30
0.0
 10
29.121424
 20
8.069063
 30
0.0
 10
28.959116
 20
8.066996
 30
0.0
 10
28.805284
 20
8.067514
 30
0.0
 10
28.683196
 20
8.059432
 30
0.0
 10
28.489623
 20
8.022050
 30
0.0
 10
28.202336
 20
7.930110
 30
0.0
 10
27.822338
 20
7.738518
 30
0.0
 10
27.506227
 20
7.521673
 30
0.0
 10
27.234132
 20
7.309342
 30
0.0
 10
26.986113
 20
7.097989
 30
0.0
 10
26.673017
 20
6.816353
 30
0.0
 10
26.336650
 20
6.514309
 30
0.0
 10
26.007325
 20
6.242443
 30
0.0
 10
25.707850
 20
6.027142
 30
0.0
 10
25.412763
 20
5.854691
 30
0.0
 10
25.115529
 20
5.750411
 30
0.0
 10
24.762122
 20
5.723310
 30
0.0
 10
24.365574
 20
5.999622
 30
0.0
 10
24.335258
 20
6.598438
 30
0.0
 10
24.537239
 20
6.987386
 30
0.0
 10
24.707725
 20
7.183292
 30
0.0
 10
24.749688
 20
7.225953
 30
0.0
 10
24.785314
 20
7.228293
 30
0.0
 10
24.812164
 20
7.210925
 30
0.0
 10
24.806389
 20
7.151760
 30
0.0
 10
24.808442
 20
7.052917
 30
0.0
 10
24.810257
 20
6.907368
 30
0.0
 10
24.866647
 20
6.753955
 30
0.0
 10
24.966339
 20
6.632057
 30
0.0
 10
25.088462
 20
6.532701
 30
0.0
 10
25.237037
 20
6.472664
 30
0.0
 10
25.456169
 20
6.449821
 30
0.0
 10
25.744717
 20
6.522427
 30
0.0
 10
26.024304
 20
6.766743
 30
0.0
 10
26.167223
 20
7.059152
 30
0.0
 10
26.218329
 20
7.323276
 30
0.0
 10
26.203231
 20
7.532758
 30
0.0
 10
26.140510
 20
7.716693
 30
0.0
 10
26.036309
 20
7.872110
 30
0.0
 10
25.914831
 20
7.995919
 30
0.0
 10
25.775978
 20
8.091823
 30
0.0
 10
25.630794
 20
8.150742
 30
0.0
 10
25.475922
 20
8.180824
 30
0.0
 10
25.311290
 20
8.180708
 30
0.0
 10
25.141772
 20
8.166944
 30
0.0
 10
24.976272
 20
8.130392
 30
0.0
 10
24.766965
 20
8.053209
 30
0.0
 10
24.516458
 20
7.905861
 30
0.0
 10
24.242794
 20
7.686450
 30
0.0
 10
24.064432
 20
7.472599
 30
0.0
 10
23.962200
 20
7.346972
 30
0.0
 10
23.926015
 20
7.292877
 30
0.0
 10
23.883141
 20
7.299320
 30
0.0
 10
23.883088
 20
7.348715
 30
0.0
 10
23.872011
 20
7.407507
 30
0.0
 10
23.866641
 20
7.550211
 30
0.0
 10
23.847580
 20
7.736093
 30
0.0
 10
23.773307
 20
7.951408
 30
0.0
 10
23.651249
 20
8.110667
 30
0.0
 10
23.502177
 20
8.228595
 30
0.0
 10
23.318484
 20
8.292905
 30
0.0
 10
23.118109
 20
8.306491
 30
0.0
 10
22.909202
 20
8.292269
 30
0.0
 10
22.699126
 20
8.240383
 30
0.0
 10
22.434743
 20
8.132727
 30
0.0
 10
22.101180
 20
7.936442
 30
0.0
 10
21.693584
 20
7.571903
 30
0.0
 10
21.369529
 20
7.234364
 30
0.0
 10
21.133507
 20
6.960906
 30
0.0
 10
21.034574
 20
6.881892
 30
0.0
 10
20.983644
 20
6.801922
 30
0.0
 10
20.933677
 20
6.823070
 30
0.0
 10
20.932767
 20
6.897454
 30
0.0
 10
20.915431
 20
7.041802
 30
0.0
 10
20.892507
 20
7.272952
 30
0.0
 10
20.822340
 20
7.538834
 30
0.0
 10
20.733333
 20
7.761134
 30
0.0
 10
20.640145
 20
7.928988
 30
0.0
 10
20.534883
 20
8.029337
 30
0.0
 10
20.394313
 20
8.065865
 30
0.0
 10
20.234407
 20
7.980240
 30
0.0
 10
20.066340
 20
7.889161
 30
0.0
 10
19.921719
 20
7.797078
 30
0.0
 10
19.848237
 20
7.696894
 30
0.0
 10
19.850330
 20
7.581717
 30
0.0
 10
19.890275
 20
7.426200
 30
0.0
 10
19.932669
 20
7.226360
 30
0.0
 10
19.959937
 20
7.000534
 30
0.0
 10
19.971367
 20
6.626530
 30
0.0
 10
19.917653
 20
6.107893
 30
0.0
 10
19.686975
 20
5.491858
 30
0.0
 10
19.337169
 20
5.005931
 30
0.0
 10
18.927049
 20
4.669132
 30
0.0
 10
18.513585
 20
4.490956
 30
0.0
 10
18.155656
 20
4.475717
 30
0.0
 10
17.906086
 20
4.576923
 30
0.0
 10
17.744669
 20
4.709790
 30
0.0
 10
17.640996
 20
4.870399
 30
0.0
 10
17.576587
 20
5.026534
 30
0.0
 10
17.545055
 20
5.178545
 30
0.0
 10
17.539487
 20
5.365975
 30
0.0
 10
17.555800
 20
5.591532
 30
0.0
 10
17.621867
 20
5.848198
 30
0.0
 10
17.775128
 20
6.216990
 30
0.0
 10
18.079538
 20
6.680421
 30
0.0
 10
18.632958
 20
7.136643
 30
0.0
 10
19.115713
 20
7.437762
 30
0.0
 10
19.475466
 20
7.529498
 30
0.0
 10
19.576018
 20
7.665195
 30
0.0
 10
19.494952
 20
7.801678
 30
0.0
 10
19.462053
 20
7.930156
 30
0.0
 10
19.406304
 20
8.036921
 30
0.0
 10
19.337615
 20
8.077484
 30
0.0
 10
19.278737
 20
8.106069
 30
0.0
 10
19.205026
 20
8.111301
 30
0.0
 10
19.039444
 20
8.102235
 30
0.0
 10
18.766134
 20
8.065424
 30
0.0
 10
18.401179
 20
7.949997
 30
0.0
 10
17.964614
 20
7.759642
 30
0.0
 10
17.485980
 20
7.462545
 30
0.0
 10
17.021531
 20
7.009203
 30
0.0
 10
16.716069
 20
6.582747
 30
0.0
 10
16.519131
 20
6.223242
 30
0.0
 10
16.396975
 20
5.977086
 30
0.0
 10
16.262108
 20
5.667819
 30
0.0
 10
16.116483
 20
5.321952
 30
0.0
 10
15.833224
 20
4.956086
 30
0.0
 10
15.545846
 20
4.703741
 30
0.0
 10
15.346109
 20
4.519918
 30
0.0
 10
15.255690
 20
4.435824
 30
0.0
 10
15.246477
 20
4.331085
 30
0.0
 10
15.332628
 20
4.214740
 30
0.0
 10
15.424340
 20
4.091902
 30
0.0
 10
15.500298
 20
3.981943
 30
0.0
 10
15.561124
 20
3.967151
 30
0.0
 10
15.584695
 20
3.964715
 30
0.0
 10
15.659761
 20
3.971826
 30
0.0
 10
15.794486
 20
4.090201
 30
0.0
 10
16.008713
 20
4.251730
 30
0.0
 10
16.190026
 20
4.425541
 30
0.0
 10
16.314336
 20
4.556537
 30
0.0
 10
16.368446
 20
4.599224
 30
0.0
 10
16.406999
 20
4.644189
 30
0.0
 10
16.445866
 20
4.613003
 30
0.0
 10
16.468425
 20
4.557654
 30
0.0
 10
16.524316
 20
4.403289
 30
0.0
 10
16.624822
 20
4.171353
 30
0.0
 10
16.826216
 20
3.907988
 30
0.0
 10
17.049525
 20
3.719381
 30
0.0
 10
17.271318
 20
3.592855
 30
0.0
 10
17.480059
 20
3.511701
 30
0.0
 10
17.686460
 20
3.458056
 30
0.0
 10
17.899600
 20
3.440605
 30
0.0
 10
18.096259
 20
3.437907
 30
0.0
 10
18.452294
 20
3.463735
 30
0.0
 10
18.951978
 20
3.639488
 30
0.0
 10
19.567564
 20
4.042448
 30
0.0
 10
19.965290
 20
4.459159
 30
0.0
 10
20.216810
 20
4.764533
 30
0.0
 10
20.341590
 20
4.929566
 30
0.0
 10
20.499025
 20
5.154956
 30
0.0
 10
20.720026
 20
5.452950
 30
0.0
 10
20.989593
 20
5.796646
 30
0.0
 10
21.283241
 20
6.161656
 30
0.0
 10
21.599500
 20
6.510199
 30
0.0
 10
21.925749
 20
6.821516
 30
0.0
 10
22.187278
 20
7.045966
 30
0.0
 10
22.391623
 20
7.170917
 30
0.0
 10
22.528118
 20
7.236772
 30
0.0
 10
22.675081
 20
7.294579
 30
0.0
 10
22.861660
 20
7.291865
 30
0.0
 10
22.963932
 20
7.086070
 30
0.0
 10
22.900904
 20
6.856122
 30
0.0
 10
22.744898
 20
6.561606
 30
0.0
 10
22.509487
 20
6.146215
 30
0.0
 10
22.253551
 20
5.722624
 30
0.0
 10
22.015642
 20
5.334261
 30
0.0
 10
21.782923
 20
4.965827
 30
0.0
 10
21.492828
 20
4.502204
 30
0.0
 10
21.187381
 20
4.049187
 30
0.0
 10
21.026528
 20
3.741488
 30
0.0
 10
20.927848
 20
3.610539
 30
0.0
 10
20.939128
 20
3.567307
 30
0.0
 10
20.948128
 20
3.554606
 30
0.0
 10
20.964433
 20
3.533640
 30
0.0
 10
21.036596
 20
3.513358
 30
0.0
 10
21.224610
 20
3.523411
 30
0.0
 10
21.514644
 20
3.515933
 30
0.0
 10
21.814073
 20
3.515668
 30
0.0
 10
22.000955
 20
3.523008
 30
0.0
 10
22.098667
 20
3.525368
 30
0.0
 10
22.140134
 20
3.572393
 30
0.0
 10
22.184877
 20
3.631043
 30
0.0
 10
22.257058
 20
3.741129
 30
0.0
 10
22.379234
 20
3.933348
 30
0.0
 10
22.563613
 20
4.222868
 30
0.0
 10
22.892014
 20
4.723292
 30
0.0
 10
23.244507
 20
5.373912
 30
0.0
 10
23.555406
 20
5.656854
 30
0.0
 10
23.679422
 20
6.018229
 30
0.0
 10
23.734561
 20
5.961116
 30
0.0
 10
23.738464
 20
5.905941
 30
0.0
 10
23.762366
 20
5.777639
 30
0.0
 10
23.793712
 20
5.588878
 30
0.0
 10
23.887942
 20
5.374694
 30
0.0
 10
24.042795
 20
5.174616
 30
0.0
 10
24.269062
 20
4.997946
 30
0.0
 10
24.584745
 20
4.902606
 30
0.0
 10
24.902646
 20
4.909939
 30
0.0
 10
25.211765
 20
4.989520
 30
0.0
 10
25.508564
 20
5.125351
 30
0.0
 10
25.725909
 20
5.201008
 30
0.0
 10
25.891765
 20
5.373841
 30
0.0
 10
25.975799
 20
5.246333
 30
0.0
 10
25.884072
 20
5.010340
 30
0.0
 10
25.918491
 20
4.646452
 30
0.0
 10
26.008770
 20
4.222413
 30
0.0
 10
26.187332
 20
3.900098
 30
0.0
 10
26.405226
 20
3.684944
 30
0.0
 10
26.622777
 20
3.546600
 30
0.0
 10
26.814532
 20
3.473599
 30
0.0
 10
26.957747
 20
3.438788
 30
0.0
 10
27.060693
 20
3.428786
 30
0.0
 10
27.191493
 20
3.428216
 30
0.0
 10
27.341358
 20
3.428110
 30
0.0
 10
27.505167
 20
3.453215
 30
0.0
 10
27.721332
 20
3.517820
 30
0.0
 10
28.004171
 20
3.635093
 30
0.0
 10
28.330329
 20
3.836634
 30
0.0
 10
28.555218
 20
4.018798
 30
0.0
 10
28.687484
 20
4.142087
 30
0.0
 10
28.731669
 20
4.176891
 30
0.0
 10
28.760517
 20
4.205966
 30
0.0
 10
28.799298
 20
4.210142
 30
0.0
 10
28.820772
 20
4.163721
 30
0.0
 10
28.832259
 20
4.079783
 30
0.0
 10
28.854842
 20
3.950790
 30
0.0
 10
28.912291
 20
3.802230
 30
0.0
 10
28.997313
 20
3.657121
 30
0.0
 10
29.117113
 20
3.524375
 30
0.0
 10
29.280432
 20
3.422492
 30
0.0
 10
29.444941
 20
3.367585
 30
0.0
 10
29.605148
 20
3.350426
 30
0.0
 10
29.749806
 20
3.349527
 30
0.0
 10
29.849977
 20
3.361804
 30
0.0
 10
29.899305
 20
3.367850
 30
0.0
 11
29.899635
 21
3.366110
 31
0.0
 11
30.315818
 21
3.484192
 31
0.0
 11
30.756277
 21
3.704741
 31
0.0
 11
31.209840
 21
4.022210
 31
0.0
 11
31.657414
 21
4.413011
 31
0.0
 11
32.131406
 21
4.888496
 31
0.0
 11
32.603340
 21
5.420110
 31
0.0
 11
32.684734
 21
5.520299
 31
0.0
 11
32.729196
 21
5.583571
 31
0.0
 11
32.742690
 21
5.618480
 31
0.0
 11
32.714050
 21
5.670868
 31
0.0
 11
32.631170
 21
5.757916
 31
0.0
 11
32.498610
 21
5.874950
 31
0.0
 11
32.406110
 21
5.931673
 31
0.0
 11
32.251910
 21
5.827800
 31
0.0
 11
31.865910
 21
5.448670
 31
0.0
 11
31.382646
 21
4.977107
 31
0.0
 11
31.048439
 21
4.678510
 31
0.0
 11
30.746925
 21
4.448920
 31
0.0
 11
30.456634
 21
4.285591
 31
0.0
 11
30.206666
 21
4.230202
 31
0.0
 11
30.014745
 21
4.286680
 31
0.0
 11
29.928423
 21
4.401648
 31
0.0
 11
29.926467
 21
4.564876
 31
0.0
 11
30.008745
 21
4.783150
 31
0.0
 11
30.370654
 21
5.403323
 31
0.0
 11
31.136791
 21
6.624510
 31
0.0
 11
32.321820
 21
8.470090
 31
0.0
 11
33.028950
 21
9.566228
 31
0.0
 11
33.336430
 21
10.050546
 31
0.0
 11
33.403530
 21
10.173910
 31
0.0
 11
33.399802
 21
10.190066
 31
0.0
 11
33.389708
 21
10.206354
 31
0.0
 11
33.374880
 21
10.219510
 31
0.0
 11
33.319251
 21
10.231477
 31
0.0
 11
33.146049
 21
10.235843
 31
0.0
 11
32.770200
 21
10.234810
 31
0.0
 11
32.392772
 21
10.231288
 31
0.0
 11
32.219963
 21
10.224632
 31
0.0
 11
32.164185
 21
10.211710
 31
0.0
 11
32.132807
 21
10.175818
 31
0.0
 11
32.079363
 21
10.100172
 31
0.0
 11
32.015385
 21
10.001320
 31
0.0
 11
31.529291
 21
9.250224
 31
0.0
 11
30.752629
 21
8.062916
 31
0.0
 11
30.231195
 21
7.273760
 31
0.0
 11
30.194312
 21
7.233734
 31
0.0
 11
30.160428
 21
7.221686
 31
0.0
 11
30.136245
 21
7.240060
 31
0.0
 11
30.128684
 21
7.260893
 31
0.0
 11
30.119356
 21
7.294593
 31
0.0
 11
30.110295
 21
7.333960
 31
0.0
 11
29.982417
 21
7.610343
 31
0.0
 11
29.740413
 21
7.844833
 31
0.0
 11
29.418075
 21
8.004730
 31
0.0
 11
29.271496
 21
8.046630
 31
0.0
 11
29.141959
 21
8.063997
 31
0.0
 11
28.949190
 21
8.067430
 31
0.0
 11
28.786296
 21
8.065289
 31
0.0
 11
28.680679
 21
8.056971
 31
0.0
 11
28.584765
 21
8.039630
 31
0.0
 11
28.215161
 21
7.923937
 31
0.0
 11
27.843004
 21
7.739169
 31
0.0
 11
27.453000
 21
7.477690
 31
0.0
 11
27.245955
 21
7.316349
 31
0.0
 11
27.014350
 21
7.120541
 31
0.0
 11
26.706945
 21
6.846940
 31
0.0
 11
26.295902
 21
6.483654
 31
0.0
 11
25.988878
 21
6.233403
 31
0.0
 11
25.715415
 21
6.038750
 31
0.0
 11
25.388872
 21
5.855846
 31
0.0
 11
25.093253
 21
5.758554
 31
0.0
 11
24.840360
 21
5.750770
 31
0.0
 11
24.447354
 21
6.022846
 31
0.0
 11
24.378996
 21
6.538934
 31
0.0
 11
24.658320
 21
7.125130
 31
0.0
 11
24.718303
 21
7.193541
 31
0.0
 11
24.757987
 21
7.223819
 31
0.0
 11
24.788370
 21
7.224430
 31
0.0
 11
24.804126
 21
7.213580
 31
0.0
 11
24.809114
 21
7.175630
 31
0.0
 11
24.807870
 21
7.075480
 31
0.0
 11
24.820956
 21
6.901231
 31
0.0
 11
24.872954
 21
6.760299
 31
0.0
 11
24.969480
 21
6.636530
 31
0.0
 11
25.094927
 21
6.537964
 31
0.0
 11
25.235058
 21
6.480786
 31
0.0
 11
25.396455
 21
6.462320
 31
0.0
 11
25.727537
 21
6.545107
 31
0.0
 11
25.997773
 21
6.773299
 31
0.0
 11
26.171325
 21
7.116640
 31
0.0
 11
26.209464
 21
7.329134
 31
0.0
 11
26.195036
 21
7.528916
 31
0.0
 11
26.127375
 21
7.724450
 31
0.0
 11
26.035136
 21
7.864924
 31
0.0
 11
25.907279
 21
7.994976
 31
0.0
 11
25.769100
 21
8.088850
 31
0.0
 11
25.627318
 21
8.146702
 31
0.0
 11
25.483542
 21
8.174931
 31
0.0
 11
25.312830
 21
8.178450
 31
0.0
 11
25.138658
 21
8.162572
 31
0.0
 11
24.978642
 21
8.127161
 31
0.0
 11
24.820920
 21
8.069550
 31
0.0
 11
24.528847
 21
7.904179
 31
0.0
 11
24.248368
 21
7.675048
 31
0.0
 11
24.013635
 21
7.410030
 31
0.0
 11
23.951441
 21
7.330008
 31
0.0
 11
23.914079
 21
7.297352
 31
0.0
 11
23.890485
 21
7.302330
 31
0.0
 11
23.882529
 21
7.333123
 31
0.0
 11
23.874641
 21
7.401604
 31
0.0
 11
23.868285
 21
7.492930
 31
0.0
 11
23.835069
 21
7.750167
 31
0.0
 11
23.761561
 21
7.949617
 31
0.0
 11
23.641065
 21
8.109640
 31
0.0
 11
23.497163
 21
8.219775
 31
0.0
 11
23.327107
 21
8.282001
 31
0.0
 11
23.116125
 21
8.301750
 31
0.0
 11
22.911076
 21
8.286459
 31
0.0
 11
22.708189
 21
8.237721
 31
0.0
 11
22.492890
 21
8.152050
 31
0.0
 11
22.135626
 21
7.942488
 31
0.0
 11
21.748119
 21
7.613542
 31
0.0
 11
21.257535
 21
7.103380
 31
0.0
 11
21.118078
 21
6.953428
 31
0.0
 11
21.016207
 21
6.849782
 31
0.0
 11
20.970240
 21
6.811090
 31
0.0
 11
20.946018
 21
6.821171
 31
0.0
 11
20.932562
 21
6.870936
 31
0.0
 11
20.921940
 21
6.989670
 31
0.0
 11
20.884571
 21
7.274515
 31
0.0
 11
20.815789
 21
7.541075
 31
0.0
 11
20.716680
 21
7.784920
 31
0.0
 11
20.623906
 21
7.936790
 31
0.0
 11
20.524689
 21
8.022500
 31
0.0
 11
20.410485
 21
8.049430
 31
0.0
 11
20.261316
 21
7.994532
 31
0.0
 11
20.050174
 21
7.876701
 31
0.0
 11
19.903005
 21
7.766230
 31
0.0
 11
19.858194
 21
7.696311
 31
0.0
 11
19.852416
 21
7.605943
 31
0.0
 11
19.882905
 21
7.451310
 31
0.0
 11
19.930516
 21
7.218761
 31
0.0
 11
19.956294
 21
7.004649
 31
0.0
 11
19.964205
 21
6.776020
 31
0.0
 11
19.887421
 21
6.102974
 31
0.0
 11
19.659959
 21
5.501689
 31
0.0
 11
19.288995
 21
4.991110
 31
0.0
 11
18.899139
 21
4.678303
 31
0.0
 11
18.488086
 21
4.511730
 31
0.0
 11
18.099750
 21
4.509190
 31
0.0
 11
17.911704
 21
4.585705
 31
0.0
 11
17.754101
 21
4.715391
 31
0.0
 11
17.637255
 21
4.889760
 31
0.0
 11
17.579949
 21
5.031290
 31
0.0
 11
17.550611
 21
5.170410
 31
0.0
 11
17.542605
 21
5.338300
 31
0.0
 11
17.563009
 21
5.588331
 31
0.0
 11
17.625141
 21
5.837749
 31
0.0
 11
17.732265
 21
6.099820
 31
0.0
 11
18.095167
 21
6.646689
 31
0.0
 11
18.619118
 21
7.106455
 31
0.0
 11
19.307310
 21
7.481910
 31
0.0
 11
19.498631
 21
7.570941
 31
0.0
 11
19.548374
 21
7.648759
 31
0.0
 11
19.506855
 21
7.794150
 31
0.0
 11
19.447515
 21
7.952473
 31
0.0
 11
19.396735
 21
8.034763
 31
0.0
 11
19.330275
 21
8.080320
 31
0.0
 11
19.277771
 21
8.102553
 31
0.0
 11
19.221039
 21
8.109320
 31
0.0
 11
19.116855
 21
8.105820
 31
0.0
 11
18.782708
 21
8.058477
 31
0.0
 11
18.417842
 21
7.948676
 31
0.0
 11
18.027585
 21
7.777960
 31
0.0
 11
17.503168
 21
7.447006
 31
0.0
 11
17.047432
 21
7.009597
 31
0.0
 11
16.649145
 21
6.454950
 31
0.0
 11
16.527861
 21
6.235954
 31
0.0
 11
16.396449
 21
5.970360
 31
0.0
 11
16.284075
 21
5.717050
 31
0.0
 11
16.094294
 21
5.320410
 31
0.0
 11
15.852256
 21
4.998754
 31
0.0
 11
15.465585
 21
4.629300
 31
0.0
 11
15.319282
 21
4.494894
 31
0.0
 11
15.259283
 21
4.419676
 31
0.0
 11
15.253110
 21
4.362930
 31
0.0
 11
15.318549
 21
4.233878
 31
0.0
 11
15.439366
 21
4.069022
 31
0.0
 11
15.538305
 21
3.973510
 31
0.0
 11
15.560333
 21
3.967843
 31
0.0
 11
15.585527
 21
3.965510
 31
0.0
 11
15.608355
 21
3.967510
 31
0.0
 11
15.759444
 21
4.057325
 31
0.0
 11
15.996491
 21
4.249605
 31
0.0
 11
16.244460
 21
4.483500
 31
0.0
 11
16.321262
 21
4.559868
 31
0.0
 11
16.380538
 21
4.614322
 31
0.0
 11
16.409490
 21
4.635090
 31
0.0
 11
16.435096
 21
4.619596
 31
0.0
 11
16.463434
 21
4.569137
 31
0.0
 11
16.497840
 21
4.477750
 31
0.0
 11
16.637499
 21
4.176345
 31
0.0
 11
16.835416
 21
3.915505
 31
0.0
 11
17.083095
 21
3.706440
 31
0.0
 11
17.273303
 21
3.597904
 31
0.0
 11
17.477852
 21
3.517036
 31
0.0
 11
17.702520
 21
3.461500
 31
0.0
 11
17.887056
 21
3.443544
 31
0.0
 11
18.110229
 21
3.441256
 31
0.0
 11
18.290835
 21
3.455500
 31
0.0
 11
18.923993
 21
3.656927
 31
0.0
 11
19.521807
 21
4.042687
 31
0.0
 11
20.097975
 21
4.621600
 31
0.0
 11
20.216629
 21
4.766377
 31
0.0
 11
20.327371
 21
4.912373
 31
0.0
 11
20.472765
 21
5.115750
 31
0.0
 11
20.705450
 21
5.430613
 31
0.0
 11
20.995255
 21
5.802250
 31
0.0
 11
21.278400
 21
6.148860
 31
0.0
 11
21.605918
 21
6.508513
 31
0.0
 11
21.949717
 21
6.838007
 31
0.0
 11
22.253775
 21
7.083640
 31
0.0
 11
22.392363
 21
7.168229
 31
0.0
 11
22.540517
 21
7.240201
 31
0.0
 11
22.658625
 21
7.280370
 31
0.0
 11
22.848701
 21
7.257504
 31
0.0
 11
22.933189
 21
7.112312
 31
0.0
 11
22.896555
 21
6.871500
 31
0.0
 11
22.776737
 21
6.623733
 31
0.0
 11
22.537773
 21
6.199994
 31
0.0
 11
22.194795
 21
5.627140
 31
0.0
 11
22.021294
 21
5.344865
 31
0.0
 11
21.825946
 21
5.033575
 31
0.0
 11
21.500685
 21
4.521060
 31
0.0
 11
21.139651
 21
3.949497
 31
0.0
 11
20.975414
 21
3.675827
 31
0.0
 11
20.936100
 21
3.580290
 31
0.0
 11
20.939250
 21
3.569112
 31
0.0
 11
20.947800
 21
3.555268
 31
0.0
 11
20.959950
 21
3.541290
 31
0.0
 11
21.000201
 21
3.524668
 31
0.0
 11
21.150554
 21
3.518312
 31
0.0
 11
21.525615
 21
3.517290
 31
0.0
 11
21.869594
 21
3.518612
 31
0.0
 11
22.039936
 21
3.523868
 31
0.0
 11
22.101315
 21
3.534990
 31
0.0
 11
22.131843
 21
3.563513
 31
0.0
 11
22.178137
 21
3.623443
 31
0.0
 11
22.237965
 21
3.712320
 31
0.0
 11
22.351183
 21
3.889173
 31
0.0
 11
22.549432
 21
4.199213
 31
0.0
 11
22.789800
 21
4.575360
 31
0.0
 11
23.337527
 21
5.429446
 31
0.0
 11
23.621423
 21
5.861864
 31
0.0
 11
23.713200
 21
5.981850
 31
0.0
 11
23.725722
 21
5.968690
 31
0.0
 11
23.737978
 21
5.921640
 31
0.0
 11
23.752500
 21
5.829700
 31
0.0
 11
23.806504
 21
5.581065
 31
0.0
 11
23.896031
 21
5.378721
 31
0.0
 11
24.028905
 21
5.204880
 31
0.0
 11
24.278748
 21
5.014928
 31
0.0
 11
24.575852
 21
4.921565
 31
0.0
 11
24.920625
 21
4.924660
 31
0.0
 11
25.194537
 21
4.993242
 31
0.0
 11
25.503123
 21
5.117824
 31
0.0
 11
25.791435
 21
5.276260
 31
0.0
 11
25.905278
 21
5.337904
 31
0.0
 11
25.941702
 21
5.290616
 31
0.0
 11
25.927785
 21
5.099260
 31
0.0
 11
25.928540
 21
4.637963
 31
0.0
 11
26.031625
 21
4.220684
 31
0.0
 11
26.231670
 21
3.869040
 31
0.0
 11
26.407916
 21
3.694371
 31
0.0
 11
26.626539
 21
3.554579
 31
0.0
 11
26.869215
 21
3.461350
 31
0.0
 11
26.959136
 21
3.440728
 31
0.0
 11
27.047784
 21
3.431172
 31
0.0
 11
27.175785
 21
3.428350
 31
0.0
 11
27.350989
 21
3.432980
 31
0.0
 11
27.494876
 21
3.454720
 31
0.0
 11
27.662700
 21
3.502350
 31
0.0
 11
27.991001
 21
3.639522
 31
0.0
 11
28.319879
 21
3.839528
 31
0.0
 11
28.635270
 21
4.093800
 31
0.0
 11
28.692059
 21
4.144744
 31
0.0
 11
28.738181
 21
4.184089
 31
0.0
 11
28.763670
 21
4.203300
 31
0.0
 11
28.793064
 21
4.204722
 31
0.0
 11
28.814726
 21
4.173678
 31
0.0
 11
28.828320
 21
4.110300
 31
0.0
 11
28.860173
 21
3.951281
 31
0.0
 11
28.916247
 21
3.803776
 31
0.0
 11
28.996260
 21
3.668610
 31
0.0
 11
29.123040
 21
3.530812
 31
0.0
 11
29.279980
 21
3.431121
 31
0.0
 11
29.468130
 21
3.368850
 31
0.0
 11
29.597556
 21
3.353257
 31
0.0
 11
29.751099
 21
3.352843
 31
0.0
 11
29.899305
 21
3.367850
 31
0.0
  0
LWPOLYLINE
  5
108
100
AcDbEntity
  8
Layer_1
 62
7
100
AcDbPolyline
 90
2
 70
0
 10
29.899305
 20
3.367850
 30
0.0
 10
29.899635
 20
3.366110
 30
0.0
  0
SPLINE
  5
109
100
AcDbEntity
  8
Layer_1
 62
7
100
AcDbSpline
 70
0
 71
3
 72
46
 73
42
 74
40
 40
0.000000
 40
0.000000
 40
0.000000
 40
0.000000
 40
0.163280
 40
0.317506
 40
0.497184
 40
0.555072
 40
0.624583
 40
0.721008
 40
1.320297
 40
2.004489
 40
2.761582
 40
3.161572
 40
3.500075
 40
3.782165
 40
4.002398
 40
4.206409
 40
4.399878
 40
4.456401
 40
4.514370
 40
4.594836
 40
4.730800
 40
4.879165
 40
5.062903
 40
5.129812
 40
5.185875
 40
5.219398
 40
5.258010
 40
5.300704
 40
5.350980
 40
5.370890
 40
5.388313
 40
5.400684
 40
5.617228
 40
6.019032
 40
6.419981
 40
6.803937
 40
7.215139
 40
7.572833
 40
7.753895
 40
7.920533
 40
8.061134
 40
8.061134
 40
8.061134
 40
8.061134
 10
27.528930
 20
4.418170
 30
0.0
 10
27.475892
 20
4.433693
 30
0.0
 10
27.372755
 20
4.463880
 30
0.0
 10
27.253128
 20
4.587847
 30
0.0
 10
27.201380
 20
4.709690
 30
0.0
 10
27.177126
 20
4.809356
 30
0.0
 10
27.172061
 20
4.884044
 30
0.0
 10
27.169816
 20
5.139054
 30
0.0
 10
27.265829
 20
5.598362
 30
0.0
 10
27.584894
 20
6.205446
 30
0.0
 10
27.977590
 20
6.682442
 30
0.0
 10
28.350130
 20
7.016137
 30
0.0
 10
28.639512
 20
7.197871
 30
0.0
 10
28.908290
 20
7.292911
 30
0.0
 10
29.149355
 20
7.283293
 30
0.0
 10
29.341227
 20
7.191501
 30
0.0
 10
29.435743
 20
7.064660
 30
0.0
 10
29.467968
 20
6.966776
 30
0.0
 10
29.476024
 20
6.901979
 30
0.0
 10
29.476687
 20
6.810484
 30
0.0
 10
29.467778
 20
6.688734
 30
0.0
 10
29.427367
 20
6.537172
 30
0.0
 10
29.376704
 20
6.414260
 30
0.0
 10
29.337829
 20
6.319457
 30
0.0
 10
29.321988
 20
6.270094
 30
0.0
 10
29.310328
 20
6.228079
 30
0.0
 10
29.321694
 20
6.189583
 30
0.0
 10
29.349690
 20
6.154696
 30
0.0
 10
29.382550
 20
6.135417
 30
0.0
 10
29.407470
 20
6.120452
 30
0.0
 10
29.419895
 20
6.108698
 30
0.0
 10
29.447179
 20
6.029320
 30
0.0
 10
29.267222
 20
5.843910
 30
0.0
 10
29.134332
 20
5.557072
 30
0.0
 10
28.898328
 20
5.227762
 30
0.0
 10
28.626738
 20
4.936979
 30
0.0
 10
28.327694
 20
4.694280
 30
0.0
 10
28.060634
 20
4.519363
 30
0.0
 10
27.839404
 20
4.438134
 30
0.0
 10
27.678175
 20
4.404015
 30
0.0
 10
27.575735
 20
4.413829
 30
0.0
 10
27.528855
 20
4.418320
 30
0.0
 11
27.528930
 21
4.418170
 31
0.0
 11
27.376887
 21
4.477694
 31
0.0
 11
27.266983
 21
4.585893
 31
0.0
 11
27.192510
 21
4.749410
 31
0.0
 11
27.179527
 21
4.805823
 31
0.0
 11
27.173243
 21
4.875050
 31
0.0
 11
27.172260
 21
4.971470
 31
0.0
 11
27.284205
 21
5.560211
 31
0.0
 11
27.591980
 21
6.171269
 31
0.0
 11
28.071495
 21
6.757150
 31
0.0
 11
28.372910
 21
7.020096
 31
0.0
 11
28.662175
 21
7.195908
 31
0.0
 11
28.931490
 21
7.279840
 31
0.0
 11
29.151384
 21
7.267640
 31
0.0
 11
29.333776
 21
7.176240
 31
0.0
 11
29.448750
 21
7.020640
 31
0.0
 11
29.466050
 21
6.966830
 31
0.0
 11
29.474150
 21
6.909430
 31
0.0
 11
29.475750
 21
6.828980
 31
0.0
 11
29.464056
 21
6.693520
 31
0.0
 11
29.427728
 21
6.549670
 31
0.0
 11
29.361900
 21
6.378130
 31
0.0
 11
29.337383
 21
6.315874
 31
0.0
 11
29.320067
 21
6.262552
 31
0.0
 11
29.313750
 21
6.229630
 31
0.0
 11
29.323377
 21
6.192237
 31
0.0
 11
29.349613
 21
6.158556
 31
0.0
 11
29.391150
 21
6.130230
 31
0.0
 11
29.407811
 21
6.119330
 31
0.0
 11
29.419739
 21
6.106630
 31
0.0
 11
29.424300
 21
6.095130
 31
0.0
 11
29.331831
 21
5.899323
 31
0.0
 11
29.120444
 21
5.557617
 31
0.0
 11
28.889175
 21
5.230090
 31
0.0
 11
28.626930
 21
4.949644
 31
0.0
 11
28.309035
 21
4.688819
 31
0.0
 11
28.003260
 21
4.503220
 31
0.0
 11
27.833319
 21
4.440742
 31
0.0
 11
27.669286
 21
4.411398
 31
0.0
 11
27.528855
 21
4.418320
 31
0.0
  0
LWPOLYLINE
  5
10a
100
AcDbEntity
  8
Layer_1
 62
7
100
AcDbPolyline
 90
2
 70
0
 10
27.528855
 20
4.418320
 30
0.0
 10
27.528930
 20
4.418170
 30
0.0
  0
SPLINE
  5
10b
100
AcDbEntity
  8
Layer_1
 62
7
100
AcDbSpline
 70
0
 71
3
 72
256
 73
252
 74
250
 40
0.000000
 40
0.000000
 40
0.000000
 40
0.000000
 40
0.226228
 40
0.426398
 40
0.629709
 40
1.665205
 40
2.865549
 40
4.349183
 40
5.191879
 40
6.235204
 40
7.666330
 40
7.694178
 40
7.723169
 40
7.747744
 40
7.980773
 40
8.484512
 40
9.127740
 40
9.527805
 40
9.700794
 40
9.756852
 40
9.789745
 40
9.845140
 40
9.911443
 40
10.176506
 40
10.438045
 40
10.611319
 40
10.674655
 40
10.734776
 40
10.799311
 40
10.903413
 40
10.983625
 40
11.080570
 40
11.131850
 40
11.207246
 40
11.290429
 40
11.414787
 40
11.482056
 40
11.517114
 40
11.541884
 40
11.587381
 40
11.643797
 40
12.057826
 40
12.450215
 40
12.840542
 40
13.130178
 40
13.401697
 40
13.679885
 40
13.784326
 40
13.909122
 40
14.018940
 40
14.326045
 40
14.650523
 40
14.980317
 40
15.118290
 40
15.257115
 40
15.421196
 40
15.532059
 40
15.582684
 40
15.605948
 40
15.991342
 40
16.668325
 40
17.038314
 40
17.077464
 40
17.184244
 40
17.364938
 40
17.732049
 40
18.089921
 40
18.493182
 40
18.983190
 40
19.512347
 40
20.118898
 40
20.262314
 40
20.369595
 40
20.421814
 40
20.446824
 40
20.479970
 40
20.514320
 40
20.544358
 40
20.566244
 40
20.576263
 40
20.840529
 40
21.416014
 40
22.151298
 40
23.460198
 40
24.395413
 40
25.201202
 40
25.540864
 40
25.937957
 40
26.254025
 40
26.757844
 40
27.216613
 40
27.669458
 40
28.202190
 40
28.618000
 40
28.943940
 40
29.049412
 40
29.155017
 40
29.239805
 40
29.316166
 40
29.391959
 40
29.469403
 40
29.528022
 40
29.628039
 40
29.836167
 40
30.462637
 40
31.083635
 40
31.757858
 40
32.257025
 40
32.941155
 40
33.465438
 40
34.408135
 40
35.456890
 40
36.952300
 40
38.528322
 40
39.665861
 40
40.644958
 40
41.168557
 40
41.622616
 40
42.038529
 40
43.264558
 40
44.378062
 40
45.368079
 40
45.766531
 40
46.152960
 40
46.547876
 40
47.045698
 40
47.518940
 40
47.981606
 40
48.406028
 40
48.846034
 40
49.325659
 40
50.021659
 40
50.772133
 40
51.591380
 40
51.824725
 40
52.091605
 40
52.279084
 40
52.432104
 40
52.552520
 40
52.660259
 40
52.782257
 40
52.900279
 40
53.083422
 40
53.605500
 40
54.138789
 40
54.630104
 40
54.981009
 40
55.286267
 40
55.562780
 40
55.729538
 40
55.901202
 40
56.100802
 40
56.428856
 40
56.779041
 40
57.183871
 40
57.575414
 40
57.968569
 40
58.412175
 40
59.304512
 40
60.282878
 40
61.414170
 40
61.966940
 40
62.632347
 40
63.069281
 40
63.130732
 40
63.165076
 40
63.248697
 40
63.316486
 40
63.408060
 40
63.503591
 40
63.944601
 40
64.451553
 40
65.071999
 40
65.501770
 40
65.954282
 40
66.576241
 40
67.018425
 40
67.189082
 40
67.246183
 40
67.319233
 40
67.465421
 40
67.653105
 40
68.108377
 40
68.470960
 40
68.789900
 40
69.076822
 40
69.343415
 40
69.528250
 40
69.726017
 40
69.894039
 40
70.074677
 40
70.143159
 40
70.226893
 40
70.366808
 40
70.707128
 40
71.021138
 40
71.336193
 40
71.484649
 40
71.598878
 40
71.646286
 40
71.811005
 40
72.185371
 40
72.626783
 40
73.196881
 40
73.787098
 40
74.341510
 40
74.662636
 40
75.028949
 40
75.330765
 40
75.903474
 40
76.441580
 40
76.946385
 40
77.135515
 40
77.359018
 40
77.536924
 40
77.915635
 40
78.268718
 40
78.631009
 40
78.919451
 40
79.217706
 40
79.519680
 40
79.757600
 40
80.005964
 40
80.292664
 40
80.521512
 40
80.730856
 40
80.959730
 40
81.142043
 40
81.235953
 40
81.293683
 40
81.440781
 40
81.596746
 40
81.759639
 40
81.813946
 40
81.876837
 40
81.982986
 40
82.091082
 40
82.171079
 40
82.259035
 40
82.684945
 40
83.132965
 40
83.592524
 40
84.388573
 40
85.179733
 40
85.987985
 40
86.904888
 40
87.817327
 40
88.798491
 40
88.932732
 40
89.041839
 40
89.211294
 40
89.211294
 40
89.211294
 40
89.211294
 10
11.230322
 20
3.540680
 30
0.0
 10
11.305600
 20
3.545465
 30
0.0
 10
11.447485
 20
3.554484
 30
0.0
 10
11.655591
 20
3.583546
 30
0.0
 10
12.125268
 20
3.681688
 30
0.0
 10
12.887375
 20
4.005152
 30
0.0
 10
13.849346
 20
4.805215
 30
0.0
 10
14.603504
 20
5.711957
 30
0.0
 10
15.250615
 20
6.630007
 30
0.0
 10
15.860488
 20
7.552865
 30
0.0
 10
16.253752
 20
8.291187
 30
0.0
 10
16.543008
 20
8.694773
 30
0.0
 10
16.562255
 20
8.714120
 30
0.0
 10
16.641373
 20
8.768940
 30
0.0
 10
16.912723
 20
8.759658
 30
0.0
 10
17.356102
 20
8.841172
 30
0.0
 10
17.873415
 20
8.876773
 30
0.0
 10
18.280049
 20
8.909612
 30
0.0
 10
18.484814
 20
8.926689
 30
0.0
 10
18.576908
 20
8.922346
 30
0.0
 10
18.612981
 20
8.888444
 30
0.0
 10
18.650869
 20
8.854231
 30
0.0
 10
18.739147
 20
8.759845
 30
0.0
 10
18.889207
 20
8.628517
 30
0.0
 10
19.083308
 20
8.505362
 30
0.0
 10
19.238940
 20
8.425649
 30
0.0
 10
19.339157
 20
8.439068
 30
0.0
 10
19.397207
 20
8.465429
 30
0.0
 10
19.452651
 20
8.518202
 30
0.0
 10
19.503882
 20
8.587956
 30
0.0
 10
19.499116
 20
8.690361
 30
0.0
 10
19.438459
 20
8.744257
 30
0.0
 10
19.378292
 20
8.787033
 30
0.0
 10
19.322062
 20
8.828881
 30
0.0
 10
19.244737
 20
8.883586
 30
0.0
 10
19.175731
 20
8.940635
 30
0.0
 10
19.112261
 20
8.989369
 30
0.0
 10
19.112668
 20
9.040462
 30
0.0
 10
19.146994
 20
9.056360
 30
0.0
 10
19.183149
 20
9.075929
 30
0.0
 10
19.344162
 20
9.139765
 30
0.0
 10
19.596856
 20
9.287495
 30
0.0
 10
19.847897
 20
9.609691
 30
0.0
 10
19.954170
 20
9.960669
 30
0.0
 10
19.919971
 20
10.286205
 30
0.0
 10
19.757987
 20
10.526619
 30
0.0
 10
19.558179
 20
10.638817
 30
0.0
 10
19.389431
 20
10.658744
 30
0.0
 10
19.276267
 20
10.658122
 30
0.0
 10
19.096110
 20
10.636374
 30
0.0
 10
18.869900
 20
10.518839
 30
0.0
 10
18.635946
 20
10.295463
 30
0.0
 10
18.505637
 20
10.060163
 30
0.0
 10
18.447824
 20
9.865886
 30
0.0
 10
18.425451
 20
9.720415
 30
0.0
 10
18.424856
 20
9.580848
 30
0.0
 10
18.420366
 20
9.475763
 30
0.0
 10
18.424793
 20
9.409196
 30
0.0
 10
18.314406
 20
9.294993
 30
0.0
 10
17.870696
 20
9.386904
 30
0.0
 10
17.566317
 20
9.401231
 30
0.0
 10
16.939226
 20
9.188570
 30
0.0
 10
16.985602
 20
9.368481
 30
0.0
 10
17.047887
 20
9.456150
 30
0.0
 10
17.162914
 20
9.642728
 30
0.0
 10
17.338152
 20
9.888362
 30
0.0
 10
17.577144
 20
10.179296
 30
0.0
 10
17.864001
 20
10.482309
 30
0.0
 10
18.205660
 20
10.811259
 30
0.0
 10
18.618982
 20
11.162872
 30
0.0
 10
18.955129
 20
11.423012
 30
0.0
 10
19.185253
 20
11.595412
 30
0.0
 10
19.258862
 20
11.661486
 30
0.0
 10
19.310634
 20
11.700833
 30
0.0
 10
19.319071
 20
11.737608
 30
0.0
 10
19.324709
 20
11.767717
 30
0.0
 10
19.325872
 20
11.800462
 30
0.0
 10
19.327543
 20
11.828769
 30
0.0
 10
19.329231
 20
11.850203
 30
0.0
 10
19.391119
 20
11.930500
 30
0.0
 10
19.728332
 20
11.697826
 30
0.0
 10
20.191718
 20
11.687067
 30
0.0
 10
21.055488
 20
11.398274
 30
0.0
 10
22.003542
 20
11.159728
 30
0.0
 10
23.000992
 20
10.943158
 30
0.0
 10
23.691014
 20
10.862699
 30
0.0
 10
24.205329
 20
10.851123
 30
0.0
 10
24.556239
 20
10.857772
 30
0.0
 10
24.961548
 20
10.880569
 30
0.0
 10
25.382896
 20
10.951621
 30
0.0
 10
25.838840
 20
11.077596
 30
0.0
 10
26.281025
 20
11.270664
 30
0.0
 10
26.687846
 20
11.504356
 30
0.0
 10
27.012739
 20
11.781759
 30
0.0
 10
27.165121
 20
12.032547
 30
0.0
 10
27.190967
 20
12.211010
 30
0.0
 10
27.188783
 20
12.309786
 30
0.0
 10
27.169533
 20
12.398239
 30
0.0
 10
27.122744
 20
12.463990
 30
0.0
 10
27.061921
 20
12.511997
 30
0.0
 10
26.994917
 20
12.537530
 30
0.0
 10
26.915978
 20
12.546547
 30
0.0
 10
26.794927
 20
12.522624
 30
0.0
 10
26.490803
 20
12.459900
 30
0.0
 10
26.013471
 20
12.367669
 30
0.0
 10
25.378275
 20
12.285593
 30
0.0
 10
24.782458
 20
12.227159
 30
0.0
 10
24.163108
 20
12.216016
 30
0.0
 10
23.593978
 20
12.215795
 30
0.0
 10
22.876888
 20
12.230700
 30
0.0
 10
22.040931
 20
12.305311
 30
0.0
 10
20.888456
 20
12.456932
 30
0.0
 10
19.533681
 20
12.683313
 30
0.0
 10
18.148889
 20
12.908307
 30
0.0
 10
16.925427
 20
13.052110
 30
0.0
 10
16.044924
 20
13.080998
 30
0.0
 10
15.392653
 20
13.070716
 30
0.0
 10
14.928805
 20
13.040017
 30
0.0
 10
14.236073
 20
12.947109
 30
0.0
 10
13.342983
 20
12.700244
 30
0.0
 10
12.357808
 20
12.167373
 30
0.0
 10
11.753442
 20
11.567007
 30
0.0
 10
11.464952
 20
11.046979
 30
0.0
 10
11.340760
 20
10.671449
 30
0.0
 10
11.280637
 20
10.247239
 30
0.0
 10
11.319202
 20
9.786845
 30
0.0
 10
11.510819
 20
9.339431
 30
0.0
 10
11.824316
 20
8.998872
 30
0.0
 10
12.222604
 20
8.789288
 30
0.0
 10
12.669989
 20
8.710695
 30
0.0
 10
13.211559
 20
8.760306
 30
0.0
 10
13.819951
 20
8.998382
 30
0.0
 10
14.418038
 20
9.472644
 30
0.0
 10
14.795657
 20
9.948259
 30
0.0
 10
15.010830
 20
10.332154
 30
0.0
 10
15.113779
 20
10.536757
 30
0.0
 10
15.202006
 20
10.719686
 30
0.0
 10
15.239840
 20
10.869602
 30
0.0
 10
15.233251
 20
11.000914
 30
0.0
 10
15.170953
 20
11.102081
 30
0.0
 10
15.062622
 20
11.173502
 30
0.0
 10
14.918988
 20
11.109362
 30
0.0
 10
14.766036
 20
10.880094
 30
0.0
 10
14.499015
 20
10.562635
 30
0.0
 10
14.092894
 20
10.240335
 30
0.0
 10
13.685252
 20
10.021239
 30
0.0
 10
13.307655
 20
9.935376
 30
0.0
 10
12.991108
 20
9.963734
 30
0.0
 10
12.765648
 20
10.090526
 30
0.0
 10
12.636830
 20
10.254270
 30
0.0
 10
12.576549
 20
10.426132
 30
0.0
 10
12.558166
 20
10.660006
 30
0.0
 10
12.602727
 20
10.953972
 30
0.0
 10
12.769226
 20
11.280151
 30
0.0
 10
13.020793
 20
11.570684
 30
0.0
 10
13.322345
 20
11.830655
 30
0.0
 10
13.678484
 20
12.037246
 30
0.0
 10
14.217448
 20
12.245060
 30
0.0
 10
14.974605
 20
12.417333
 30
0.0
 10
15.977781
 20
12.455094
 30
0.0
 10
16.867254
 20
12.366787
 30
0.0
 10
17.629749
 20
12.234113
 30
0.0
 10
18.203853
 20
12.141810
 30
0.0
 10
18.522603
 20
12.060495
 30
0.0
 10
18.747653
 20
12.028850
 30
0.0
 10
18.730959
 20
11.957696
 30
0.0
 10
18.666727
 20
11.937033
 30
0.0
 10
18.599004
 20
11.894737
 30
0.0
 10
18.523946
 20
11.854036
 30
0.0
 10
18.341367
 20
11.752055
 30
0.0
 10
18.046641
 20
11.565628
 30
0.0
 10
17.638190
 20
11.238214
 30
0.0
 10
17.254526
 20
10.888483
 30
0.0
 10
16.898065
 20
10.535899
 30
0.0
 10
16.576085
 20
10.151091
 30
0.0
 10
16.279395
 20
9.739572
 30
0.0
 10
16.024213
 20
9.421470
 30
0.0
 10
15.903889
 20
9.226098
 30
0.0
 10
15.814705
 20
9.175311
 30
0.0
 10
15.722201
 20
9.164353
 30
0.0
 10
15.589885
 20
9.136482
 30
0.0
 10
15.330009
 20
9.093995
 30
0.0
 10
15.000442
 20
9.033215
 30
0.0
 10
14.632094
 20
8.942591
 30
0.0
 10
14.326200
 20
8.838163
 30
0.0
 10
14.061242
 20
8.716336
 30
0.0
 10
13.849480
 20
8.591965
 30
0.0
 10
13.668707
 20
8.468664
 30
0.0
 10
13.583995
 20
8.288238
 30
0.0
 10
13.649569
 20
8.095014
 30
0.0
 10
13.797533
 20
8.043747
 30
0.0
 10
13.908711
 20
8.055385
 30
0.0
 10
13.996999
 20
8.099982
 30
0.0
 10
14.151943
 20
8.205335
 30
0.0
 10
14.379426
 20
8.342830
 30
0.0
 10
14.681271
 20
8.463170
 30
0.0
 10
14.933313
 20
8.521247
 30
0.0
 10
15.128747
 20
8.539228
 30
0.0
 10
15.224831
 20
8.548798
 30
0.0
 10
15.352689
 20
8.524864
 30
0.0
 10
15.098672
 20
8.309848
 30
0.0
 10
15.002530
 20
8.082620
 30
0.0
 10
14.689287
 20
7.695846
 30
0.0
 10
14.373667
 20
7.281095
 30
0.0
 10
14.000816
 20
6.842671
 30
0.0
 10
13.677114
 20
6.477646
 30
0.0
 10
13.385193
 20
6.183805
 30
0.0
 10
13.146375
 20
5.956437
 30
0.0
 10
12.841087
 20
5.677322
 30
0.0
 10
12.459004
 20
5.397847
 30
0.0
 10
11.976218
 20
5.156203
 30
0.0
 10
11.580402
 20
5.030813
 30
0.0
 10
11.275101
 20
5.004283
 30
0.0
 10
11.078191
 20
5.002397
 30
0.0
 10
10.818085
 20
5.018640
 30
0.0
 10
10.524606
 20
5.117266
 30
0.0
 10
10.225298
 20
5.335650
 30
0.0
 10
10.034130
 20
5.618801
 30
0.0
 10
9.939341
 20
5.923975
 30
0.0
 10
9.926473
 20
6.223132
 30
0.0
 10
9.982231
 20
6.499658
 30
0.0
 10
10.087592
 20
6.741937
 30
0.0
 10
10.232460
 20
6.956601
 30
0.0
 10
10.406247
 20
7.143483
 30
0.0
 10
10.582203
 20
7.309338
 30
0.0
 10
10.758526
 20
7.445492
 30
0.0
 10
10.935814
 20
7.553003
 30
0.0
 10
11.080301
 20
7.637857
 30
0.0
 10
11.175698
 20
7.697876
 30
0.0
 10
11.236197
 20
7.779180
 30
0.0
 10
11.250685
 20
7.907577
 30
0.0
 10
11.186553
 20
8.055222
 30
0.0
 10
11.085675
 20
8.136614
 30
0.0
 10
10.997924
 20
8.170311
 30
0.0
 10
10.923176
 20
8.177139
 30
0.0
 10
10.830966
 20
8.176490
 30
0.0
 10
10.732775
 20
8.176670
 30
0.0
 10
10.641073
 20
8.166111
 30
0.0
 10
10.449485
 20
8.115104
 30
0.0
 10
10.149954
 20
7.995365
 30
0.0
 10
9.771468
 20
7.758357
 30
0.0
 10
9.341340
 20
7.384345
 30
0.0
 10
8.943838
 20
6.813466
 30
0.0
 10
8.722813
 20
6.032532
 30
0.0
 10
8.747756
 20
5.180133
 30
0.0
 10
9.111373
 20
4.345938
 30
0.0
 10
9.862901
 20
3.731264
 30
0.0
 10
10.536900
 20
3.563014
 30
0.0
 10
10.943849
 20
3.532745
 30
0.0
 10
11.081579
 20
3.532938
 30
0.0
 10
11.174268
 20
3.538684
 30
0.0
 10
11.230652
 20
3.542180
 30
0.0
 11
11.230322
 21
3.540680
 31
0.0
 11
11.455883
 21
3.558036
 31
0.0
 11
11.654148
 21
3.585591
 31
0.0
 11
11.853180
 21
3.627080
 31
0.0
 11
12.810059
 21
4.022850
 31
0.0
 11
13.752036
 21
4.766830
 31
0.0
 11
14.719935
 21
5.891260
 31
0.0
 11
15.209004
 21
6.577516
 31
0.0
 11
15.777446
 21
7.452387
 31
0.0
 11
16.526565
 21
8.671790
 31
0.0
 11
16.543359
 21
8.694005
 31
0.0
 11
16.563921
 21
8.714442
 31
0.0
 11
16.584015
 21
8.728590
 31
0.0
 11
16.813651
 21
8.768211
 31
0.0
 11
17.314184
 21
8.824956
 31
0.0
 11
17.954700
 21
8.883950
 31
0.0
 11
18.353497
 21
8.915783
 31
0.0
 11
18.526283
 21
8.924150
 31
0.0
 11
18.581460
 21
8.914250
 31
0.0
 11
18.607299
 21
8.893894
 31
0.0
 11
18.647771
 21
8.856072
 31
0.0
 11
18.694110
 21
8.808650
 31
0.0
 11
18.893333
 21
8.633811
 31
0.0
 11
19.113307
 21
8.492339
 31
0.0
 11
19.276500
 21
8.434100
 31
0.0
 11
19.339302
 21
8.442300
 31
0.0
 11
19.393918
 21
8.467433
 31
0.0
 11
19.442160
 21
8.510300
 31
0.0
 11
19.495699
 21
8.599579
 31
0.0
 11
19.490371
 21
8.679614
 31
0.0
 11
19.426110
 21
8.752200
 31
0.0
 11
19.384803
 21
8.782589
 31
0.0
 11
19.323957
 21
8.827111
 31
0.0
 11
19.256730
 21
8.876100
 31
0.0
 11
19.159064
 21
8.953083
 31
0.0
 11
19.115766
 21
9.004564
 31
0.0
 11
19.119330
 21
9.039440
 31
0.0
 11
19.139886
 21
9.053262
 31
0.0
 11
19.180574
 21
9.073618
 31
0.0
 11
19.232430
 21
9.095840
 31
0.0
 11
19.585530
 21
9.312034
 31
0.0
 11
19.826560
 21
9.621669
 31
0.0
 11
19.933890
 21
9.996950
 31
0.0
 11
19.895843
 21
10.284076
 31
0.0
 11
19.744192
 21
10.509297
 31
0.0
 11
19.499625
 21
10.641870
 31
0.0
 11
19.396143
 21
10.655989
 31
0.0
 11
19.271347
 21
10.655551
 31
0.0
 11
19.162515
 21
10.640870
 31
0.0
 11
18.884423
 21
10.510570
 31
0.0
 11
18.649932
 21
10.286294
 31
0.0
 11
18.490170
 21
9.997780
 31
0.0
 11
18.450970
 21
9.865493
 31
0.0
 11
18.429870
 21
9.728281
 31
0.0
 11
18.423570
 21
9.564320
 31
0.0
 11
18.422409
 21
9.453463
 31
0.0
 11
18.416281
 21
9.403210
 31
0.0
 11
18.401220
 21
9.385480
 31
0.0
 11
18.017303
 21
9.351780
 31
0.0
 11
17.341362
 21
9.314213
 31
0.0
 11
16.971465
 21
9.305980
 31
0.0
 11
16.980582
 21
9.344054
 31
0.0
 11
17.033198
 21
9.436970
 31
0.0
 11
17.131215
 21
9.588770
 31
0.0
 11
17.343349
 21
9.888386
 31
0.0
 11
17.570466
 21
10.164954
 31
0.0
 11
17.846100
 21
10.459310
 31
0.0
 11
18.199566
 21
10.798677
 31
0.0
 11
18.601414
 21
11.142950
 31
0.0
 11
19.079610
 21
11.516090
 31
0.0
 11
19.192866
 21
11.604075
 31
0.0
 11
19.274954
 21
11.673145
 31
0.0
 11
19.311060
 21
11.710870
 31
0.0
 11
19.318282
 21
11.734814
 31
0.0
 11
19.323838
 21
11.767492
 31
0.0
 11
19.326060
 21
11.801770
 31
0.0
 11
19.327838
 21
11.831755
 31
0.0
 11
19.332282
 21
11.853185
 31
0.0
 11
19.338060
 21
11.861370
 31
0.0
 11
19.596297
 21
11.805243
 31
0.0
 11
20.153678
 21
11.662031
 31
0.0
 11
20.863305
 21
11.469490
 31
0.0
 11
22.129198
 21
11.136723
 31
0.0
 11
23.045627
 21
10.950214
 31
0.0
 11
23.846610
 21
10.862340
 31
0.0
 11
24.186162
 21
10.853718
 31
0.0
 11
24.583188
 21
10.861029
 31
0.0
 11
24.898590
 21
10.881540
 31
0.0
 11
25.395790
 21
10.962940
 31
0.0
 11
25.837060
 21
11.088436
 31
0.0
 11
26.253270
 21
11.266870
 31
0.0
 11
26.711203
 21
11.539083
 31
0.0
 11
27.018152
 21
11.819583
 31
0.0
 11
27.172335
 21
12.106750
 31
0.0
 11
27.188035
 21
12.211047
 31
0.0
 11
27.184835
 21
12.316603
 31
0.0
 11
27.163335
 21
12.398620
 31
0.0
 11
27.120047
 21
12.461526
 31
0.0
 11
27.060433
 21
12.508331
 31
0.0
 11
26.988165
 21
12.536170
 31
0.0
 11
26.929914
 21
12.542726
 31
0.0
 11
26.830761
 21
12.529614
 31
0.0
 11
26.626800
 21
12.488170
 31
0.0
 11
26.010855
 21
12.373820
 31
0.0
 11
25.395420
 21
12.290887
 31
0.0
 11
24.723795
 21
12.231750
 31
0.0
 11
24.224808
 21
12.218361
 31
0.0
 11
23.540677
 21
12.218509
 31
0.0
 11
23.016570
 21
12.232060
 31
0.0
 11
22.076964
 21
12.308336
 31
0.0
 11
21.036821
 21
12.442464
 31
0.0
 11
19.560045
 21
12.677800
 31
0.0
 11
18.002506
 21
12.918462
 31
0.0
 11
16.871604
 21
13.041161
 31
0.0
 11
15.893115
 21
13.075650
 31
0.0
 11
15.369611
 21
13.065647
 31
0.0
 11
14.916664
 21
13.033893
 31
0.0
 11
14.504490
 21
12.978250
 31
0.0
 11
13.324649
 21
12.644898
 31
0.0
 11
12.353296
 21
12.100506
 31
0.0
 11
11.666325
 21
11.387620
 31
0.0
 11
11.474583
 21
11.038337
 31
0.0
 11
11.352789
 21
10.671603
 31
0.0
 11
11.298617
 21
10.280420
 31
0.0
 11
11.346799
 21
9.784936
 31
0.0
 11
11.535398
 21
9.350898
 31
0.0
 11
11.849940
 21
9.011600
 31
0.0
 11
12.224751
 21
8.812473
 31
0.0
 11
12.657294
 21
8.731787
 31
0.0
 11
13.135245
 21
8.771840
 31
0.0
 11
13.785365
 21
9.020354
 31
0.0
 11
14.380315
 21
9.477789
 31
0.0
 11
14.888805
 21
10.120130
 31
0.0
 11
15.003906
 21
10.323112
 31
0.0
 11
15.124969
 21
10.560954
 31
0.0
 11
15.200490
 21
10.732550
 31
0.0
 11
15.234007
 21
10.881854
 31
0.0
 11
15.222823
 21
11.001749
 31
0.0
 11
15.166740
 21
11.093740
 31
0.0
 11
15.059652
 21
11.152184
 31
0.0
 11
14.948198
 21
11.113362
 31
0.0
 11
14.827590
 21
10.975540
 31
0.0
 11
14.489299
 21
10.577890
 31
0.0
 11
14.072496
 21
10.245216
 31
0.0
 11
13.634265
 21
10.023080
 31
0.0
 11
13.290696
 21
9.951708
 31
0.0
 11
12.987469
 21
9.986869
 31
0.0
 11
12.748410
 21
10.125830
 31
0.0
 11
12.645864
 21
10.257331
 31
0.0
 11
12.586486
 21
10.418399
 31
0.0
 11
12.567360
 21
10.617080
 31
0.0
 11
12.617942
 21
10.941211
 31
0.0
 11
12.771493
 21
11.255936
 31
0.0
 11
13.030725
 21
11.566880
 31
0.0
 11
13.329055
 21
11.820464
 31
0.0
 11
13.667875
 21
12.019893
 31
0.0
 11
14.079855
 21
12.184390
 31
0.0
 11
14.949442
 21
12.384599
 31
0.0
 11
15.926638
 21
12.432414
 31
0.0
 11
17.053275
 21
12.329890
 31
0.0
 11
17.598794
 21
12.240649
 31
0.0
 11
18.253791
 21
12.123404
 31
0.0
 11
18.682350
 21
12.038270
 31
0.0
 11
18.738783
 21
12.013948
 31
0.0
 11
18.733017
 21
11.980092
 31
0.0
 11
18.664350
 21
11.932370
 31
0.0
 11
18.605179
 21
11.899292
 31
0.0
 11
18.525281
 21
11.854548
 31
0.0
 11
18.441930
 21
11.807870
 31
0.0
 11
18.069783
 21
11.571234
 31
0.0
 11
17.670947
 21
11.258296
 31
0.0
 11
17.210910
 21
10.841980
 31
0.0
 11
16.908308
 21
10.536799
 31
0.0
 11
16.615867
 21
10.191481
 31
0.0
 11
16.240215
 21
9.695780
 31
0.0
 11
15.976732
 21
9.340670
 31
0.0
 11
15.868548
 21
9.208684
 31
0.0
 11
15.818475
 21
9.181240
 31
0.0
 11
15.746917
 21
9.166551
 31
0.0
 11
15.603113
 21
9.140262
 31
0.0
 11
15.418215
 21
9.108040
 31
0.0
 11
14.971008
 21
9.022728
 31
0.0
 11
14.619527
 21
8.933689
 31
0.0
 11
14.318130
 21
8.829370
 31
0.0
 11
14.057579
 21
8.709213
 31
0.0
 11
13.827346
 21
8.574811
 31
0.0
 11
13.683435
 21
8.458820
 31
0.0
 11
13.608701
 21
8.275718
 31
0.0
 11
13.667059
 21
8.118156
 31
0.0
 11
13.834605
 21
8.050640
 31
0.0
 11
13.902637
 21
8.058478
 31
0.0
 11
13.979158
 21
8.092476
 31
0.0
 11
14.097360
 21
8.167340
 31
0.0
 11
14.391380
 21
8.338716
 31
0.0
 11
14.682950
 21
8.455290
 31
0.0
 11
14.990340
 21
8.524360
 31
0.0
 11
15.137941
 21
8.540271
 31
0.0
 11
15.252149
 21
8.542449
 31
0.0
 11
15.297990
 21
8.530360
 31
0.0
 11
15.206336
 21
8.393495
 31
0.0
 11
14.987119
 21
8.090025
 31
0.0
 11
14.723955
 21
7.735640
 31
0.0
 11
14.371920
 21
7.287217
 31
0.0
 11
13.991995
 21
6.835539
 31
0.0
 11
13.620600
 21
6.423910
 31
0.0
 11
13.394863
 21
6.195513
 31
0.0
 11
13.129877
 21
5.942597
 31
0.0
 11
12.905190
 21
5.741080
 31
0.0
 11
12.441274
 21
5.405255
 31
0.0
 11
11.960036
 21
5.164492
 31
0.0
 11
11.474760
 21
5.025440
 31
0.0
 11
11.286482
 21
5.007507
 31
0.0
 11
11.062990
 21
5.005240
 31
0.0
 11
10.885652
 21
5.019440
 31
0.0
 11
10.525950
 21
5.137916
 31
0.0
 11
10.242304
 21
5.348184
 31
0.0
 11
10.038332
 21
5.647600
 31
0.0
 11
9.952432
 21
5.922955
 31
0.0
 11
9.938532
 21
6.220885
 31
0.0
 11
9.997832
 21
6.516980
 31
0.0
 11
10.092453
 21
6.735274
 31
0.0
 11
10.229896
 21
6.942142
 31
0.0
 11
10.421837
 21
7.155110
 31
0.0
 11
10.589518
 21
7.310850
 31
0.0
 11
10.755501
 21
7.438420
 31
0.0
 11
10.949162
 21
7.560400
 31
0.0
 11
11.105541
 21
7.654119
 31
0.0
 11
11.181198
 21
7.709754
 31
0.0
 11
11.215457
 21
7.756220
 31
0.0
 11
11.237635
 21
7.901637
 31
0.0
 11
11.177384
 21
8.045493
 31
0.0
 11
11.051072
 21
8.148350
 31
0.0
 11
11.000075
 21
8.167020
 31
0.0
 11
10.937699
 21
8.175046
 31
0.0
 11
10.831562
 21
8.176650
 31
0.0
 11
10.723492
 21
8.174273
 31
0.0
 11
10.644082
 21
8.164600
 31
0.0
 11
10.558682
 21
8.143550
 31
0.0
 11
10.162561
 21
7.987064
 31
0.0
 11
9.781678
 21
7.751163
 31
0.0
 11
9.436097
 21
7.448230
 31
0.0
 11
8.983588
 21
6.793303
 31
0.0
 11
8.764379
 21
6.033117
 31
0.0
 11
8.795129
 21
5.225450
 31
0.0
 11
9.171521
 21
4.389364
 31
0.0
 11
9.873090
 21
3.805972
 31
0.0
 11
10.818362
 21
3.543020
 31
0.0
 11
10.952299
 21
3.533989
 31
0.0
 11
11.061405
 21
3.533771
 31
0.0
 11
11.230652
 21
3.542180
 31
0.0
  0
LWPOLYLINE
  5
10c
100
AcDbEntity
  8
Layer_1
 62
7
100
AcDbPolyline
 90
2
 70
0
 10
11.230652
 20
3.542180
 30
0.0
 10
11.230322
 20
3.540680
 30
0.0
  0
SPLINE
  5
10d
100
AcDbEntity
  8
Layer_1
 62
7
100
AcDbSpline
 70
0
 71
3
 72
25
 73
21
 74
19
 40
0.000000
 40
0.000000
 40
0.000000
 40
0.000000
 40
0.030963
 40
0.073418
 40
0.138371
 40
0.274616
 40
0.408973
 40
0.545060
 40
0.691185
 40
0.806263
 40
0.911533
 40
1.011610
 40
1.094668
 40
1.205888
 40
1.430773
 40
1.683262
 40
1.937515
 40
1.994008
 40
2.019706
 40
2.052167
 40
2.052167
 40
2.052167
 40
2.052167
 10
18.920205
 20
9.535960
 30
0.0
 10
18.915508
 20
9.545241
 30
0.0
 10
18.904371
 20
9.567250
 30
0.0
 10
18.900647
 20
9.614027
 30
0.0
 10
18.899368
 20
9.694852
 30
0.0
 10
18.910611
 20
9.807065
 30
0.0
 10
18.952514
 20
9.937090
 30
0.0
 10
19.022459
 20
10.057968
 30
0.0
 10
19.106005
 20
10.161289
 30
0.0
 10
19.207712
 20
10.235044
 30
0.0
 10
19.314028
 20
10.254214
 30
0.0
 10
19.415913
 20
10.243119
 30
0.0
 10
19.482195
 20
10.159248
 30
0.0
 10
19.483520
 20
10.013906
 30
0.0
 10
19.413077
 20
9.826635
 30
0.0
 10
19.249470
 20
9.637632
 30
0.0
 10
19.079762
 20
9.549404
 30
0.0
 10
18.977474
 20
9.506137
 30
0.0
 10
18.935395
 20
9.507058
 30
0.0
 10
18.925714
 20
9.525799
 30
0.0
 10
18.920310
 20
9.536260
 30
0.0
 11
18.920205
 21
9.535960
 31
0.0
 11
18.907744
 21
9.564304
 31
0.0
 11
18.901616
 21
9.606316
 31
0.0
 11
18.900555
 21
9.671260
 31
0.0
 11
18.915444
 21
9.806688
 31
0.0
 11
18.956666
 21
9.934565
 31
0.0
 11
19.023555
 21
10.053080
 31
0.0
 11
19.118030
 21
10.164556
 31
0.0
 11
19.213695
 21
10.228518
 31
0.0
 11
19.316910
 21
10.249220
 31
0.0
 11
19.414920
 21
10.228986
 31
0.0
 11
19.467970
 21
10.165078
 31
0.0
 11
19.478640
 21
10.054370
 31
0.0
 11
19.405369
 21
9.841756
 31
0.0
 11
19.240091
 21
9.650880
 31
0.0
 11
19.019610
 21
9.524260
 31
0.0
 11
18.965666
 21
9.507482
 31
0.0
 11
18.940154
 21
9.510571
 31
0.0
 11
18.920310
 21
9.536260
 31
0.0
  0
LWPOLYLINE
  5
10e
100
AcDbEntity
  8
Layer_1
 62
7
100
AcDbPolyline
 90
2
 70
0
 10
18.920310
 20
9.536260
 30
0.0
 10
18.920205
 20
9.535960
 30
0.0
  0
ENDSEC
  0
SECTION
  2
OBJECTS
  0
DICTIONARY
  5
C
330
0
100
AcDbDictionary
  3
ACAD_GROUP
350
D
  3
ACAD_MLINESTYLE
350
17
  0
DICTIONARY
  5
D
330
C
100
AcDbDictionary
  0
DICTIONARY
  5
1A
330
C
100
AcDbDictionary
  0
DICTIONARY
  5
17
330
C
100
AcDbDictionary
  3
STANDARD
350
18
  0
DICTIONARY
  5
19
330
C
100
AcDbDictionary
  0
ENDSEC
  0
EOF
